<svg width="44" height="43" viewBox="0 0 44 43" fill="none" xmlns="http://www.w3.org/2000/svg">
<path d="M14.9537 33.8747C14.9537 33.8747 14.8672 33.7883 14.7808 33.7019C14.6944 33.7019 14.608 33.6155 14.4351 33.6155C14.0894 33.6155 14.003 33.7883 14.003 33.9611C14.003 34.2204 14.0894 34.3068 14.4351 34.3068C14.7808 34.3068 14.9537 34.134 14.9537 33.8747ZM12.2746 33.529C12.2746 33.3562 12.4474 33.2698 12.7931 33.3562C13.0524 33.4426 13.1388 33.529 13.1388 33.7019C13.1388 33.8747 13.0524 33.9611 12.9659 33.9611C12.7931 34.0476 12.7067 34.0476 12.6202 33.9611C12.4474 33.9611 12.361 33.8747 12.2746 33.7883C12.1881 33.7019 12.1881 33.6155 12.2746 33.529ZM16.0772 33.3562C16.3364 33.3562 16.5093 33.4426 16.5093 33.6155C16.5093 33.7883 16.4229 33.9611 16.1636 34.0476C15.9907 34.0476 15.9043 34.0476 15.8179 34.0476C15.7315 34.0476 15.6451 33.8747 15.6451 33.7019C15.6451 33.529 15.7315 33.4426 16.0772 33.3562ZM21.7811 0.256104C25.6701 0.256104 29.2999 1.20676 32.6704 3.02165C35.9545 4.92296 38.6336 7.42923 40.5349 10.5405C42.4362 13.8245 43.4733 17.4543 43.4733 21.3434C43.4733 26.1831 42.0905 30.4178 39.4114 34.2204C36.7323 38.023 33.2754 40.6157 28.9542 41.9985C28.4357 42.1713 28.09 42.0849 27.8307 41.8257C27.5715 41.6528 27.485 41.3071 27.485 40.9614V33.7019C27.485 31.887 26.9665 30.5906 26.0158 29.7264C28.09 29.5536 29.732 29.2079 30.7691 28.8622C32.3247 28.3436 33.6211 27.4794 34.4853 26.2695C35.436 24.8003 35.9545 22.7261 35.9545 20.1334C35.9545 19.0964 35.6952 18.1457 35.3495 17.2815C35.0038 16.7629 34.4853 15.9851 33.7075 15.1209C33.8803 14.6024 34.0532 13.911 34.1396 13.0467C34.1396 11.8368 33.9668 10.5405 33.5347 9.24411C32.9297 9.07127 32.1519 9.24411 31.1148 9.58981C30.4234 9.9355 29.5592 10.2812 28.695 10.7997L27.5715 11.5775C25.7566 11.059 23.9417 10.7997 22.0404 10.7997C20.1391 10.7997 18.4106 11.059 16.6821 11.5775L15.5586 10.7997C14.608 10.2812 13.7437 9.9355 13.0524 9.58981C12.0153 9.24411 11.2375 9.07127 10.7189 9.24411C10.2004 10.5405 9.94113 11.8368 10.114 13.0467C10.114 13.911 10.2004 14.5159 10.4597 15.0345C9.76828 15.8987 9.24974 16.7629 8.90405 17.4543C8.55835 18.1457 8.47193 19.0964 8.47193 20.1334C8.47193 22.7261 8.90405 24.8003 9.8547 26.1831C10.6325 27.393 11.8424 28.3436 13.4845 28.8622C14.5216 29.2079 16.0772 29.5536 18.1513 29.7264C17.3735 30.4178 16.9414 31.4549 16.7686 32.6648C15.7315 33.1833 14.7808 33.3562 13.9166 33.1833C12.361 33.0969 11.2375 32.3191 10.4597 30.8499C10.114 30.2449 9.59543 29.7264 9.07689 29.2943C8.64478 29.1214 8.21266 28.8622 7.78055 28.6893L7.17558 28.6029C6.4842 28.6029 6.13851 28.7758 6.13851 28.9486C6.13851 29.1214 6.22493 29.3807 6.57062 29.5536L7.00274 29.8993C7.34843 30.1585 7.78055 30.5042 8.21266 31.0228C8.55835 31.4549 8.81762 31.887 9.07689 32.4055L9.42259 33.0969C9.68186 33.9611 10.2004 34.6525 11.0646 35.0846C11.756 35.5168 12.5338 35.776 13.5709 35.8625C14.2623 35.9489 14.9537 35.9489 15.7315 35.776L16.6821 35.6896L16.7686 40.9614C16.7686 41.3071 16.5957 41.6528 16.3364 41.8257C16.0772 42.0849 15.7315 42.1713 15.2994 41.9985C10.8918 40.6157 7.34843 38.023 4.66931 34.2204C1.90377 30.4178 0.607422 26.1831 0.607422 21.3434C0.607422 17.4543 1.47165 13.911 3.37296 10.6269C5.18785 7.42923 7.69412 4.92296 10.9782 3.02165C14.1759 1.20676 17.8056 0.256104 21.7811 0.256104ZM8.99047 30.0721C9.07689 29.9857 9.24974 29.9857 9.42259 30.1585C9.59543 30.3314 9.59543 30.5042 9.50901 30.5906C9.33616 30.7635 9.24974 30.6771 9.07689 30.5042C8.90405 30.3314 8.81762 30.2449 8.99047 30.0721ZM8.03982 29.3807C8.12624 29.2943 8.29909 29.2943 8.47193 29.3807C8.64478 29.4671 8.64478 29.5536 8.64478 29.7264C8.55835 29.8993 8.38551 29.8993 8.21266 29.7264C8.03982 29.64 7.95339 29.5536 8.03982 29.3807ZM10.8918 32.4055C10.8918 32.4055 10.9782 32.4055 11.1511 32.4055C11.2375 32.4055 11.3239 32.492 11.4103 32.5784C11.4967 32.6648 11.5832 32.7512 11.5832 32.8376C11.5832 33.0105 11.5832 33.0969 11.5832 33.0969C11.4103 33.2698 11.1511 33.2698 10.9782 33.0105C10.8054 32.9241 10.8054 32.8376 10.8054 32.6648C10.8054 32.5784 10.8054 32.492 10.8918 32.4055ZM9.8547 31.1956C9.94113 31.1956 10.0275 31.1956 10.114 31.1956C10.2004 31.1956 10.2868 31.282 10.3732 31.3684C10.5461 31.6277 10.5461 31.8006 10.3732 31.887C10.2868 31.9734 10.2004 31.9734 10.114 31.887C10.0275 31.887 9.94113 31.8006 9.8547 31.7141C9.68186 31.4549 9.68186 31.282 9.8547 31.1956Z" fill="#9696A5"/>
</svg>
