<svg width="148" height="28" viewBox="0 0 148 28" fill="none" xmlns="http://www.w3.org/2000/svg">
<path d="M120.282 16.9475C121.726 16.9475 122.836 17.3008 123.612 18.0074C124.387 18.7062 124.775 19.6816 124.775 20.9334C124.775 22.1853 124.399 23.176 123.646 23.9056C122.893 24.6352 121.741 25 120.19 25H117.517V16.9475H120.282ZM123.404 20.968C123.404 19.1248 122.348 18.2032 120.236 18.2032H118.877V23.7213H120.386C121.361 23.7213 122.106 23.4909 122.621 23.0301C123.143 22.5616 123.404 21.8742 123.404 20.968ZM128.133 23.3872C128.502 23.7558 128.966 23.9402 129.527 23.9402C130.087 23.9402 130.548 23.7558 130.909 23.3872C131.278 23.0109 131.462 22.527 131.462 21.9357C131.462 21.3443 131.278 20.8643 130.909 20.4957C130.548 20.1194 130.087 19.9312 129.527 19.9312C128.966 19.9312 128.502 20.1194 128.133 20.4957C127.772 20.8643 127.591 21.3443 127.591 21.9357C127.591 22.527 127.772 23.0109 128.133 23.3872ZM131.831 24.1821C131.216 24.7888 130.448 25.0922 129.527 25.0922C128.605 25.0922 127.837 24.7888 127.223 24.1821C126.608 23.5677 126.301 22.8189 126.301 21.9357C126.301 21.0525 126.608 20.3075 127.223 19.7008C127.837 19.0864 128.605 18.7792 129.527 18.7792C130.448 18.7792 131.216 19.0864 131.831 19.7008C132.445 20.3075 132.752 21.0525 132.752 21.9357C132.752 22.8189 132.445 23.5677 131.831 24.1821ZM137.298 25.0922C136.446 25.0922 135.712 24.8042 135.098 24.2282C134.483 23.6445 134.176 22.8842 134.176 21.9472C134.176 21.0102 134.495 20.2499 135.132 19.6662C135.777 19.0749 136.561 18.7792 137.482 18.7792C138.404 18.7792 139.184 19.0979 139.821 19.7354L139.061 20.6685C138.531 20.2077 137.997 19.9773 137.459 19.9773C136.922 19.9773 136.453 20.1578 136.054 20.5187C135.662 20.872 135.466 21.3328 135.466 21.9011C135.466 22.4618 135.662 22.9379 136.054 23.3296C136.446 23.7213 136.926 23.9171 137.494 23.9171C138.07 23.9171 138.611 23.656 139.118 23.1338L139.879 23.9632C139.134 24.7158 138.273 25.0922 137.298 25.0922ZM145.898 23.1683C145.898 23.752 145.687 24.2205 145.264 24.5738C144.842 24.9194 144.301 25.0922 143.64 25.0922C143.195 25.0922 142.73 25.0115 142.246 24.8502C141.77 24.689 141.348 24.4624 140.979 24.1706L141.601 23.1683C142.315 23.7059 143.006 23.9747 143.675 23.9747C143.966 23.9747 144.197 23.9094 144.366 23.7789C144.535 23.6406 144.619 23.4678 144.619 23.2605C144.619 22.9533 144.212 22.6768 143.398 22.431C143.337 22.408 143.291 22.3926 143.26 22.385C141.985 22.0394 141.348 21.4634 141.348 20.657C141.348 20.0886 141.566 19.6355 142.004 19.2976C142.45 18.952 143.026 18.7792 143.732 18.7792C144.439 18.7792 145.107 18.9866 145.737 19.4013L145.253 20.3574C144.754 20.0272 144.212 19.8621 143.629 19.8621C143.321 19.8621 143.072 19.9197 142.88 20.0349C142.688 20.1424 142.592 20.3075 142.592 20.5302C142.592 20.7299 142.692 20.8758 142.891 20.968C143.029 21.0371 143.221 21.1024 143.467 21.1638C143.721 21.2253 143.943 21.2867 144.135 21.3482C144.327 21.4096 144.512 21.4787 144.688 21.5555C144.873 21.6323 145.069 21.7398 145.276 21.8781C145.691 22.1546 145.898 22.5846 145.898 23.1683Z" fill="#3FE7E7"/>
<path d="M37.5726 25.3565C36.7893 24.575 36.7893 23.3061 37.5726 22.5246L58.6544 1.49332C59.4351 0.714527 60.6988 0.714527 61.4795 1.49332L62.6325 2.64363C63.4158 3.42506 63.4158 4.69401 62.6325 5.47544L41.5507 26.5068C40.7701 27.2856 39.5064 27.2856 38.7257 26.5068L37.5726 25.3565Z" fill="#3FE7E7"/>
<path d="M53.5162 21.381C52.7329 20.5996 52.7329 19.3306 53.5162 18.5492L54.6693 17.3989C55.45 16.6201 56.7137 16.6201 57.4943 17.3989L62.6337 22.5259C63.417 23.3074 63.417 24.5763 62.6337 25.3578L61.4806 26.5081C60.7 27.2869 59.4363 27.2869 58.6556 26.5081L53.5162 21.381Z" fill="#3FE7E7"/>
<path d="M37.5745 5.47694C36.7911 4.69551 36.7911 3.42656 37.5745 2.64513L38.7275 1.49482C39.5082 0.716026 40.7719 0.716027 41.5526 1.49482L46.6919 6.6219C47.4753 7.40333 47.4753 8.67228 46.692 9.45371L45.5389 10.604C44.7582 11.3828 43.4945 11.3828 42.7138 10.604L37.5745 5.47694Z" fill="#3FE7E7"/>
<path d="M88.1892 6.00003V11.34H99.839C100.06 11.34 100.24 11.5191 100.24 11.74V16.28C100.24 16.5009 100.06 16.68 99.839 16.68H88.1892V22.02H99.839C100.06 22.02 100.24 22.1991 100.24 22.42V26.96C100.24 27.1809 100.06 27.36 99.839 27.36H82.5657C82.3442 27.36 82.1647 27.1809 82.1647 26.96V1.05002C82.1647 0.829111 82.3442 0.650024 82.5657 0.650024H99.839C100.06 0.650024 100.24 0.829111 100.24 1.05002V5.60003C100.24 5.82094 100.06 6.00003 99.839 6.00003H88.1892Z" fill="#3FE7E7"/>
<path d="M0 1.05002V5.58802C0 5.80894 0.179516 5.98802 0.40096 5.98802H12.0509V16.94C12.0509 17.1609 12.2304 17.34 12.4518 17.34H17.6763C17.8978 17.34 18.0773 17.1609 18.0773 16.94V1.05002C18.0773 0.829111 17.8978 0.650024 17.6763 0.650024H0.40096C0.179516 0.650024 0 0.829111 0 1.05002Z" fill="#3FE7E7"/>
<rect y="11.33" width="6.02643" height="16.02" rx="2" fill="#3FE7E7"/>
<rect x="24.1038" y="0.650024" width="6.02643" height="26.7" rx="2" fill="#3FE7E7"/>
<rect x="70.1119" y="0.650024" width="6.02644" height="26.7" rx="2" fill="#3FE7E7"/>
<path d="M108.5 0V28" stroke="black" stroke-opacity="0.2"/>
</svg>
