<svg width="23" height="19" viewBox="0 0 23 19" fill="none" xmlns="http://www.w3.org/2000/svg">
<path fill-rule="evenodd" clip-rule="evenodd" d="M1 0H22C22.5525 0 23 0.4475 23 1V18C23 18.5525 22.5525 19 22 19H1C0.4475 19 0 18.5525 0 18V1C0 0.4475 0.4475 0 1 0ZM11.831 10.875L20.331 3.375C20.538 3.1925 20.5575 2.8765 20.375 2.6695C20.192 2.462 19.876 2.442 19.669 2.625L11.5 9.833L3.331 2.625C3.1235 2.442 2.808 2.462 2.625 2.6695C2.442 2.8765 2.462 3.1925 2.669 3.375L11.169 10.875C11.2635 10.9585 11.382 11 11.5 11C11.618 11 11.7365 10.9585 11.831 10.875Z" fill="#A6A8AE"/>
</svg>
