<svg width="21" height="22" viewBox="0 0 21 22" fill="none" xmlns="http://www.w3.org/2000/svg">
<path fill-rule="evenodd" clip-rule="evenodd" d="M18.9756 9.36279C18.9756 4.19186 14.7837 0 9.61279 0C4.44186 0 0.25 4.19186 0.25 9.36279C0.25 14.5337 4.44186 18.7256 9.61279 18.7256C11.5173 18.7256 13.289 18.1569 14.7674 17.1802L19.5876 22L20.8367 20.7508L16.151 16.0646C17.8936 14.3642 18.9756 11.9899 18.9756 9.36279ZM2.01656 9.36279C2.01656 5.16751 5.41751 1.76656 9.61279 1.76656C13.8081 1.76656 17.209 5.16751 17.209 9.36279C17.209 13.5581 13.8081 16.959 9.61279 16.959C5.41751 16.959 2.01656 13.5581 2.01656 9.36279Z" fill="#9696A5"/>
</svg>
