<svg width="24" height="24" viewBox="0 0 24 24" fill="none" xmlns="http://www.w3.org/2000/svg">
<path d="M8.844 0H8.841C7.448 0 6.318 1.13 6.318 2.523C6.318 3.916 7.448 5.046 8.841 5.046H11.362V2.518C11.361 1.127 10.234 0 8.844 0Z" fill="#B2B5BB"/>
<path d="M2.54 17.696C1.147 17.696 0.017 16.566 0.017 15.173C0.017 13.78 1.147 12.65 2.54 12.65H5.063V15.173C5.063 16.566 3.933 17.696 2.54 17.696Z" fill="#B2B5BB"/>
<path d="M21.477 12.65H15.159C13.766 12.65 12.636 13.78 12.636 15.173C12.636 16.566 13.766 17.696 15.159 17.696H21.477C22.87 17.696 24 16.566 24 15.173C24 13.78 22.87 12.65 21.477 12.65Z" fill="#B2B5BB"/>
<path d="M6.32 15.173C6.32 13.781 7.449 12.652 8.841 12.652C10.232 12.652 11.361 13.781 11.362 15.173V21.479C11.362 22.871 10.233 24 8.841 24C7.449 24 6.32 22.871 6.32 21.479V15.173Z" fill="#B2B5BB"/>
<path d="M15.159 18.956C16.551 18.956 17.68 20.085 17.68 21.477C17.68 22.869 16.551 23.998 15.159 23.998C13.767 23.998 12.639 22.87 12.638 21.479V18.956H15.159Z" fill="#B2B5BB"/>
<path d="M8.841 11.371H2.523C1.13 11.371 0 10.241 0 8.848C0 7.455 1.13 6.325 2.523 6.325H8.841C10.234 6.325 11.364 7.455 11.364 8.848C11.364 10.241 10.234 11.371 8.841 11.371Z" fill="#B2B5BB"/>
<path d="M21.455 6.324C20.064 6.324 18.937 7.451 18.937 8.842V11.37H21.458C22.851 11.37 23.981 10.24 23.981 8.847C23.981 7.454 22.851 6.324 21.458 6.324H21.455Z" fill="#B2B5BB"/>
<path d="M12.639 8.848V2.523C12.639 1.131 13.768 0.002 15.16 0.002C16.552 0.002 17.681 1.131 17.681 2.523V8.848C17.681 10.24 16.552 11.369 15.16 11.369C13.768 11.369 12.639 10.24 12.639 8.848Z" fill="#B2B5BB"/>
</svg>
