<svg width="868" height="340" viewBox="0 0 868 340" fill="none" xmlns="http://www.w3.org/2000/svg">
<rect width="868" height="340" fill="#0C1714"/>
<rect x="106" y="154" width="687" height="137" fill="#252729"/>
<rect x="106" y="154" width="94" height="37" fill="#4A4C4F"/>
<path d="M121.885 169.395H119.143V177H118.023V169.395H115.287V168.469H121.885V169.395ZM124.357 177H123.232V168.469H124.357V177ZM127.873 168.469L130.662 175.43L133.451 168.469H134.91V177H133.785V173.678L133.891 170.092L131.09 177H130.229L127.434 170.109L127.545 173.678V177H126.42V168.469H127.873ZM141.719 173.057H138.021V176.08H142.316V177H136.896V168.469H142.258V169.395H138.021V172.137H141.719V173.057ZM148.117 177.885H142.75V177H148.117V177.885Z" fill="#B2B5BB"/>
<rect x="201" y="154" width="325" height="37" fill="#4A4C4F"/>
<path d="M220.266 174.293C220.16 175.195 219.826 175.893 219.264 176.385C218.705 176.873 217.961 177.117 217.031 177.117C216.023 177.117 215.215 176.756 214.605 176.033C214 175.311 213.697 174.344 213.697 173.133V172.312C213.697 171.52 213.838 170.822 214.119 170.221C214.404 169.619 214.807 169.158 215.326 168.838C215.846 168.514 216.447 168.352 217.131 168.352C218.037 168.352 218.764 168.605 219.311 169.113C219.857 169.617 220.176 170.316 220.266 171.211H219.135C219.037 170.531 218.824 170.039 218.496 169.734C218.172 169.43 217.717 169.277 217.131 169.277C216.412 169.277 215.848 169.543 215.438 170.074C215.031 170.605 214.828 171.361 214.828 172.342V173.168C214.828 174.094 215.021 174.83 215.408 175.377C215.795 175.924 216.336 176.197 217.031 176.197C217.656 176.197 218.135 176.057 218.467 175.775C218.803 175.49 219.025 174.996 219.135 174.293H220.266ZM228.369 173.01C228.369 173.846 228.229 174.576 227.947 175.201C227.666 175.822 227.268 176.297 226.752 176.625C226.236 176.953 225.635 177.117 224.947 177.117C224.275 177.117 223.68 176.953 223.16 176.625C222.641 176.293 222.236 175.822 221.947 175.213C221.662 174.6 221.516 173.891 221.508 173.086V172.471C221.508 171.65 221.65 170.926 221.936 170.297C222.221 169.668 222.623 169.188 223.143 168.855C223.666 168.52 224.264 168.352 224.936 168.352C225.619 168.352 226.221 168.518 226.74 168.85C227.264 169.178 227.666 169.656 227.947 170.285C228.229 170.91 228.369 171.639 228.369 172.471V173.01ZM227.25 172.459C227.25 171.447 227.047 170.672 226.641 170.133C226.234 169.59 225.666 169.318 224.936 169.318C224.225 169.318 223.664 169.59 223.254 170.133C222.848 170.672 222.639 171.422 222.627 172.383V173.01C222.627 173.99 222.832 174.762 223.242 175.324C223.656 175.883 224.225 176.162 224.947 176.162C225.674 176.162 226.236 175.898 226.635 175.371C227.033 174.84 227.238 174.08 227.25 173.092V172.459ZM236.062 168.469V174.27C236.059 175.074 235.805 175.732 235.301 176.244C234.801 176.756 234.121 177.043 233.262 177.105L232.963 177.117C232.029 177.117 231.285 176.865 230.73 176.361C230.176 175.857 229.895 175.164 229.887 174.281V168.469H231V174.246C231 174.863 231.17 175.344 231.51 175.688C231.85 176.027 232.334 176.197 232.963 176.197C233.6 176.197 234.086 176.027 234.422 175.688C234.762 175.348 234.932 174.869 234.932 174.252V168.469H236.062ZM244.395 177H243.264L238.969 170.426V177H237.838V168.469H238.969L243.275 175.072V168.469H244.395V177ZM252.111 169.395H249.369V177H248.25V169.395H245.514V168.469H252.111V169.395Z" fill="#B2B5BB"/>
<rect x="527" y="154" width="266" height="37" fill="#4A4C4F"/>
<path d="M546.266 174.293C546.16 175.195 545.826 175.893 545.264 176.385C544.705 176.873 543.961 177.117 543.031 177.117C542.023 177.117 541.215 176.756 540.605 176.033C540 175.311 539.697 174.344 539.697 173.133V172.312C539.697 171.52 539.838 170.822 540.119 170.221C540.404 169.619 540.807 169.158 541.326 168.838C541.846 168.514 542.447 168.352 543.131 168.352C544.037 168.352 544.764 168.605 545.311 169.113C545.857 169.617 546.176 170.316 546.266 171.211H545.135C545.037 170.531 544.824 170.039 544.496 169.734C544.172 169.43 543.717 169.277 543.131 169.277C542.412 169.277 541.848 169.543 541.438 170.074C541.031 170.605 540.828 171.361 540.828 172.342V173.168C540.828 174.094 541.021 174.83 541.408 175.377C541.795 175.924 542.336 176.197 543.031 176.197C543.656 176.197 544.135 176.057 544.467 175.775C544.803 175.49 545.025 174.996 545.135 174.293H546.266ZM549.26 168.469L552.049 175.43L554.838 168.469H556.297V177H555.172V173.678L555.277 170.092L552.477 177H551.615L548.82 170.109L548.932 173.678V177H547.807V168.469H549.26ZM558.283 177V168.469H560.691C561.434 168.469 562.09 168.633 562.66 168.961C563.23 169.289 563.67 169.756 563.979 170.361C564.291 170.967 564.449 171.662 564.453 172.447V172.992C564.453 173.797 564.297 174.502 563.984 175.107C563.676 175.713 563.232 176.178 562.654 176.502C562.08 176.826 561.41 176.992 560.645 177H558.283ZM559.408 169.395V176.08H560.592C561.459 176.08 562.133 175.811 562.613 175.271C563.098 174.732 563.34 173.965 563.34 172.969V172.471C563.34 171.502 563.111 170.75 562.654 170.215C562.201 169.676 561.557 169.402 560.721 169.395H559.408Z" fill="#B2B5BB"/>
<line x1="201.5" y1="154" x2="201.5" y2="291" stroke="#B2B5BB"/>
<line x1="527.5" y1="154" x2="527.5" y2="291" stroke="#B2B5BB"/>
<path d="M180 44C180 38.4772 184.477 34 190 34H709C714.523 34 719 38.4772 719 44V70C719 75.5228 714.523 80 709 80H190C184.477 80 180 75.5228 180 70V44Z" fill="#537D94"/>
<path d="M218.264 57.3506C218.264 58.7979 217.933 59.9639 217.271 60.8486C216.608 61.7334 215.712 62.1758 214.581 62.1758C213.427 62.1758 212.519 61.8096 211.856 61.0771V65.6562H210.23V52.4902H211.716L211.795 53.5449C212.457 52.7246 213.377 52.3145 214.555 52.3145C215.697 52.3145 216.6 52.7451 217.262 53.6064C217.93 54.4678 218.264 55.666 218.264 57.2012V57.3506ZM216.638 57.166C216.638 56.0938 216.409 55.2471 215.952 54.626C215.495 54.0049 214.868 53.6943 214.071 53.6943C213.087 53.6943 212.349 54.1309 211.856 55.0039V59.5479C212.343 60.415 213.087 60.8486 214.089 60.8486C214.868 60.8486 215.486 60.541 215.943 59.9258C216.406 59.3047 216.638 58.3848 216.638 57.166ZM224.935 53.9492C224.688 53.9082 224.422 53.8877 224.135 53.8877C223.068 53.8877 222.345 54.3418 221.964 55.25V62H220.338V52.4902H221.92L221.946 53.5889C222.479 52.7393 223.235 52.3145 224.214 52.3145C224.53 52.3145 224.771 52.3555 224.935 52.4375V53.9492ZM228.204 62H226.578V52.4902H228.204V62ZM226.446 49.9678C226.446 49.7041 226.525 49.4814 226.684 49.2998C226.848 49.1182 227.088 49.0273 227.404 49.0273C227.721 49.0273 227.961 49.1182 228.125 49.2998C228.289 49.4814 228.371 49.7041 228.371 49.9678C228.371 50.2314 228.289 50.4512 228.125 50.627C227.961 50.8027 227.721 50.8906 227.404 50.8906C227.088 50.8906 226.848 50.8027 226.684 50.627C226.525 50.4512 226.446 50.2314 226.446 49.9678ZM232.353 52.4902L232.405 53.6855C233.132 52.7715 234.081 52.3145 235.253 52.3145C237.263 52.3145 238.276 53.4482 238.294 55.7158V62H236.668V55.707C236.662 55.0215 236.504 54.5146 236.193 54.1865C235.889 53.8584 235.411 53.6943 234.761 53.6943C234.233 53.6943 233.771 53.835 233.372 54.1162C232.974 54.3975 232.663 54.7666 232.44 55.2236V62H230.814V52.4902H232.353ZM242.952 50.1875V52.4902H244.728V53.7471H242.952V59.6445C242.952 60.0254 243.031 60.3125 243.189 60.5059C243.348 60.6934 243.617 60.7871 243.998 60.7871C244.186 60.7871 244.443 60.752 244.771 60.6816V62C244.344 62.1172 243.928 62.1758 243.523 62.1758C242.797 62.1758 242.249 61.9561 241.88 61.5166C241.511 61.0771 241.326 60.4531 241.326 59.6445V53.7471H239.595V52.4902H241.326V50.1875H242.952ZM247.435 62V53.7471H245.932V52.4902H247.435V51.5146C247.435 50.4951 247.707 49.707 248.252 49.1504C248.797 48.5938 249.567 48.3154 250.563 48.3154C250.938 48.3154 251.311 48.3652 251.68 48.4648L251.592 49.7832C251.316 49.7305 251.023 49.7041 250.713 49.7041C250.186 49.7041 249.778 49.8594 249.491 50.1699C249.204 50.4746 249.061 50.9141 249.061 51.4883V52.4902H251.091V53.7471H249.061V62H247.435ZM252.831 56.8057C252.831 55.4814 253.007 54.21 253.358 52.9912C253.716 51.7725 254.246 50.665 254.949 49.6689C255.652 48.6729 256.382 47.9697 257.138 47.5596L257.472 48.6318C256.616 49.2881 255.913 50.29 255.362 51.6377C254.817 52.9854 254.519 54.4941 254.466 56.1641L254.457 56.9111C254.457 59.1729 254.87 61.1357 255.696 62.7998C256.194 63.7959 256.786 64.5752 257.472 65.1377L257.138 66.1309C256.358 65.6973 255.614 64.9707 254.905 63.9512C253.522 61.959 252.831 59.5771 252.831 56.8057ZM487.473 64.5488L486.55 63.916C487.101 63.1484 487.388 62.3574 487.411 61.543V60.0752H489.002V61.3496C489.002 61.9414 488.855 62.5332 488.562 63.125C488.275 63.7168 487.912 64.1914 487.473 64.5488ZM497.062 52.4902L497.114 53.6855C497.841 52.7715 498.79 52.3145 499.962 52.3145C501.972 52.3145 502.985 53.4482 503.003 55.7158V62H501.377V55.707C501.371 55.0215 501.213 54.5146 500.902 54.1865C500.598 53.8584 500.12 53.6943 499.47 53.6943C498.942 53.6943 498.479 53.835 498.081 54.1162C497.683 54.3975 497.372 54.7666 497.149 55.2236V62H495.523V52.4902H497.062ZM510.992 59.4775C510.992 59.0381 510.825 58.6982 510.491 58.458C510.163 58.2119 509.586 58.001 508.76 57.8252C507.939 57.6494 507.286 57.4385 506.8 57.1924C506.319 56.9463 505.962 56.6533 505.728 56.3135C505.499 55.9736 505.385 55.5693 505.385 55.1006C505.385 54.3213 505.713 53.6621 506.369 53.123C507.031 52.584 507.875 52.3145 508.9 52.3145C509.979 52.3145 510.852 52.5928 511.52 53.1494C512.193 53.7061 512.53 54.418 512.53 55.2852H510.896C510.896 54.8398 510.705 54.4561 510.324 54.1338C509.949 53.8115 509.475 53.6504 508.9 53.6504C508.309 53.6504 507.846 53.7793 507.512 54.0371C507.178 54.2949 507.011 54.6318 507.011 55.0479C507.011 55.4404 507.166 55.7363 507.477 55.9355C507.787 56.1348 508.347 56.3252 509.155 56.5068C509.97 56.6885 510.629 56.9053 511.133 57.1572C511.637 57.4092 512.009 57.7139 512.249 58.0713C512.495 58.4229 512.618 58.8535 512.618 59.3633C512.618 60.2129 512.278 60.8955 511.599 61.4111C510.919 61.9209 510.037 62.1758 508.953 62.1758C508.191 62.1758 507.518 62.041 506.932 61.7715C506.346 61.502 505.886 61.127 505.552 60.6465C505.224 60.1602 505.06 59.6357 505.06 59.0732H506.686C506.715 59.6182 506.932 60.0518 507.336 60.374C507.746 60.6904 508.285 60.8486 508.953 60.8486C509.568 60.8486 510.061 60.7256 510.43 60.4795C510.805 60.2275 510.992 59.8936 510.992 59.4775ZM518.683 62.1758C517.394 62.1758 516.345 61.7539 515.536 60.9102C514.728 60.0605 514.323 58.9268 514.323 57.5088V57.21C514.323 56.2666 514.502 55.4258 514.859 54.6875C515.223 53.9434 515.727 53.3633 516.371 52.9473C517.021 52.5254 517.725 52.3145 518.48 52.3145C519.717 52.3145 520.678 52.7217 521.363 53.5361C522.049 54.3506 522.392 55.5166 522.392 57.0342V57.7109H515.949C515.973 58.6484 516.245 59.4072 516.767 59.9873C517.294 60.5615 517.962 60.8486 518.771 60.8486C519.345 60.8486 519.831 60.7314 520.229 60.4971C520.628 60.2627 520.977 59.9521 521.275 59.5654L522.269 60.3389C521.472 61.5635 520.276 62.1758 518.683 62.1758ZM518.48 53.6504C517.824 53.6504 517.273 53.8906 516.828 54.3711C516.383 54.8457 516.107 55.5137 516.002 56.375H520.766V56.252C520.719 55.4258 520.496 54.7871 520.098 54.3359C519.699 53.8789 519.16 53.6504 518.48 53.6504ZM528.096 60.8486C528.676 60.8486 529.183 60.6729 529.616 60.3213C530.05 59.9697 530.29 59.5303 530.337 59.0029H531.875C531.846 59.5479 531.658 60.0664 531.312 60.5586C530.967 61.0508 530.504 61.4434 529.924 61.7363C529.35 62.0293 528.74 62.1758 528.096 62.1758C526.801 62.1758 525.77 61.7451 525.002 60.8838C524.24 60.0166 523.859 58.833 523.859 57.333V57.0605C523.859 56.1348 524.029 55.3115 524.369 54.5908C524.709 53.8701 525.195 53.3105 525.828 52.9121C526.467 52.5137 527.22 52.3145 528.087 52.3145C529.153 52.3145 530.038 52.6338 530.741 53.2725C531.45 53.9111 531.828 54.7402 531.875 55.7598H530.337C530.29 55.1445 530.056 54.6406 529.634 54.248C529.218 53.8496 528.702 53.6504 528.087 53.6504C527.261 53.6504 526.619 53.9492 526.162 54.5469C525.711 55.1387 525.485 55.9971 525.485 57.1221V57.4297C525.485 58.5254 525.711 59.3691 526.162 59.9609C526.613 60.5527 527.258 60.8486 528.096 60.8486ZM539.24 59.4775C539.24 59.0381 539.073 58.6982 538.739 58.458C538.411 58.2119 537.834 58.001 537.008 57.8252C536.188 57.6494 535.534 57.4385 535.048 57.1924C534.567 56.9463 534.21 56.6533 533.976 56.3135C533.747 55.9736 533.633 55.5693 533.633 55.1006C533.633 54.3213 533.961 53.6621 534.617 53.123C535.279 52.584 536.123 52.3145 537.148 52.3145C538.227 52.3145 539.1 52.5928 539.768 53.1494C540.441 53.7061 540.778 54.418 540.778 55.2852H539.144C539.144 54.8398 538.953 54.4561 538.572 54.1338C538.197 53.8115 537.723 53.6504 537.148 53.6504C536.557 53.6504 536.094 53.7793 535.76 54.0371C535.426 54.2949 535.259 54.6318 535.259 55.0479C535.259 55.4404 535.414 55.7363 535.725 55.9355C536.035 56.1348 536.595 56.3252 537.403 56.5068C538.218 56.6885 538.877 56.9053 539.381 57.1572C539.885 57.4092 540.257 57.7139 540.497 58.0713C540.743 58.4229 540.866 58.8535 540.866 59.3633C540.866 60.2129 540.526 60.8955 539.847 61.4111C539.167 61.9209 538.285 62.1758 537.201 62.1758C536.439 62.1758 535.766 62.041 535.18 61.7715C534.594 61.502 534.134 61.127 533.8 60.6465C533.472 60.1602 533.308 59.6357 533.308 59.0732H534.934C534.963 59.6182 535.18 60.0518 535.584 60.374C535.994 60.6904 536.533 60.8486 537.201 60.8486C537.816 60.8486 538.309 60.7256 538.678 60.4795C539.053 60.2275 539.24 59.8936 539.24 59.4775ZM542.932 64.5488L542.009 63.916C542.56 63.1484 542.847 62.3574 542.87 61.543V60.0752H544.461V61.3496C544.461 61.9414 544.314 62.5332 544.021 63.125C543.734 63.7168 543.371 64.1914 542.932 64.5488ZM554.797 60.8486C555.377 60.8486 555.884 60.6729 556.317 60.3213C556.751 59.9697 556.991 59.5303 557.038 59.0029H558.576C558.547 59.5479 558.359 60.0664 558.014 60.5586C557.668 61.0508 557.205 61.4434 556.625 61.7363C556.051 62.0293 555.441 62.1758 554.797 62.1758C553.502 62.1758 552.471 61.7451 551.703 60.8838C550.941 60.0166 550.561 58.833 550.561 57.333V57.0605C550.561 56.1348 550.73 55.3115 551.07 54.5908C551.41 53.8701 551.896 53.3105 552.529 52.9121C553.168 52.5137 553.921 52.3145 554.788 52.3145C555.854 52.3145 556.739 52.6338 557.442 53.2725C558.151 53.9111 558.529 54.7402 558.576 55.7598H557.038C556.991 55.1445 556.757 54.6406 556.335 54.248C555.919 53.8496 555.403 53.6504 554.788 53.6504C553.962 53.6504 553.32 53.9492 552.863 54.5469C552.412 55.1387 552.187 55.9971 552.187 57.1221V57.4297C552.187 58.5254 552.412 59.3691 552.863 59.9609C553.314 60.5527 553.959 60.8486 554.797 60.8486ZM559.974 57.1572C559.974 56.2256 560.155 55.3877 560.519 54.6436C560.888 53.8994 561.397 53.3252 562.048 52.9209C562.704 52.5166 563.451 52.3145 564.289 52.3145C565.584 52.3145 566.63 52.7627 567.427 53.6592C568.229 54.5557 568.631 55.748 568.631 57.2363V57.3506C568.631 58.2764 568.452 59.1084 568.095 59.8467C567.743 60.5791 567.236 61.1504 566.574 61.5605C565.918 61.9707 565.162 62.1758 564.307 62.1758C563.018 62.1758 561.972 61.7275 561.169 60.8311C560.372 59.9346 559.974 58.748 559.974 57.2715V57.1572ZM561.608 57.3506C561.608 58.4053 561.852 59.252 562.338 59.8906C562.83 60.5293 563.486 60.8486 564.307 60.8486C565.133 60.8486 565.789 60.5264 566.275 59.8818C566.762 59.2314 567.005 58.3232 567.005 57.1572C567.005 56.1143 566.756 55.2705 566.258 54.626C565.766 53.9756 565.109 53.6504 564.289 53.6504C563.486 53.6504 562.839 53.9697 562.347 54.6084C561.854 55.2471 561.608 56.1611 561.608 57.3506ZM576.541 61.0596C575.908 61.8037 574.979 62.1758 573.755 62.1758C572.741 62.1758 571.968 61.8828 571.435 61.2969C570.907 60.7051 570.641 59.832 570.635 58.6777V52.4902H572.261V58.6338C572.261 60.0752 572.847 60.7959 574.019 60.7959C575.261 60.7959 576.087 60.333 576.497 59.4072V52.4902H578.123V62H576.576L576.541 61.0596ZM582.14 52.4902L582.192 53.6855C582.919 52.7715 583.868 52.3145 585.04 52.3145C587.05 52.3145 588.063 53.4482 588.081 55.7158V62H586.455V55.707C586.449 55.0215 586.291 54.5146 585.98 54.1865C585.676 53.8584 585.198 53.6943 584.548 53.6943C584.021 53.6943 583.558 53.835 583.159 54.1162C582.761 54.3975 582.45 54.7666 582.228 55.2236V62H580.602V52.4902H582.14ZM592.739 50.1875V52.4902H594.515V53.7471H592.739V59.6445C592.739 60.0254 592.818 60.3125 592.977 60.5059C593.135 60.6934 593.404 60.7871 593.785 60.7871C593.973 60.7871 594.23 60.752 594.559 60.6816V62C594.131 62.1172 593.715 62.1758 593.311 62.1758C592.584 62.1758 592.036 61.9561 591.667 61.5166C591.298 61.0771 591.113 60.4531 591.113 59.6445V53.7471H589.382V52.4902H591.113V50.1875H592.739ZM596.369 64.5488L595.446 63.916C595.997 63.1484 596.284 62.3574 596.308 61.543V60.0752H597.898V61.3496C597.898 61.9414 597.752 62.5332 597.459 63.125C597.172 63.7168 596.809 64.1914 596.369 64.5488ZM608.234 60.8486C608.814 60.8486 609.321 60.6729 609.755 60.3213C610.188 59.9697 610.429 59.5303 610.476 59.0029H612.014C611.984 59.5479 611.797 60.0664 611.451 60.5586C611.105 61.0508 610.643 61.4434 610.062 61.7363C609.488 62.0293 608.879 62.1758 608.234 62.1758C606.939 62.1758 605.908 61.7451 605.141 60.8838C604.379 60.0166 603.998 58.833 603.998 57.333V57.0605C603.998 56.1348 604.168 55.3115 604.508 54.5908C604.848 53.8701 605.334 53.3105 605.967 52.9121C606.605 52.5137 607.358 52.3145 608.226 52.3145C609.292 52.3145 610.177 52.6338 610.88 53.2725C611.589 53.9111 611.967 54.7402 612.014 55.7598H610.476C610.429 55.1445 610.194 54.6406 609.772 54.248C609.356 53.8496 608.841 53.6504 608.226 53.6504C607.399 53.6504 606.758 53.9492 606.301 54.5469C605.85 55.1387 605.624 55.9971 605.624 57.1221V57.4297C605.624 58.5254 605.85 59.3691 606.301 59.9609C606.752 60.5527 607.396 60.8486 608.234 60.8486ZM613.411 57.1572C613.411 56.2256 613.593 55.3877 613.956 54.6436C614.325 53.8994 614.835 53.3252 615.485 52.9209C616.142 52.5166 616.889 52.3145 617.727 52.3145C619.021 52.3145 620.067 52.7627 620.864 53.6592C621.667 54.5557 622.068 55.748 622.068 57.2363V57.3506C622.068 58.2764 621.89 59.1084 621.532 59.8467C621.181 60.5791 620.674 61.1504 620.012 61.5605C619.355 61.9707 618.6 62.1758 617.744 62.1758C616.455 62.1758 615.409 61.7275 614.606 60.8311C613.81 59.9346 613.411 58.748 613.411 57.2715V57.1572ZM615.046 57.3506C615.046 58.4053 615.289 59.252 615.775 59.8906C616.268 60.5293 616.924 60.8486 617.744 60.8486C618.57 60.8486 619.227 60.5264 619.713 59.8818C620.199 59.2314 620.442 58.3232 620.442 57.1572C620.442 56.1143 620.193 55.2705 619.695 54.626C619.203 53.9756 618.547 53.6504 617.727 53.6504C616.924 53.6504 616.276 53.9697 615.784 54.6084C615.292 55.2471 615.046 56.1611 615.046 57.3506ZM625.637 52.4902L625.681 53.5449C626.378 52.7246 627.318 52.3145 628.502 52.3145C629.832 52.3145 630.737 52.8242 631.218 53.8438C631.534 53.3867 631.944 53.0176 632.448 52.7363C632.958 52.4551 633.559 52.3145 634.25 52.3145C636.336 52.3145 637.396 53.4189 637.432 55.6279V62H635.806V55.7246C635.806 55.0449 635.65 54.5381 635.34 54.2041C635.029 53.8643 634.508 53.6943 633.775 53.6943C633.172 53.6943 632.671 53.876 632.272 54.2393C631.874 54.5967 631.643 55.0801 631.578 55.6895V62H629.943V55.7686C629.943 54.3857 629.267 53.6943 627.913 53.6943C626.847 53.6943 626.117 54.1484 625.725 55.0566V62H624.099V52.4902H625.637ZM641.422 52.4902L641.466 53.5449C642.163 52.7246 643.104 52.3145 644.287 52.3145C645.617 52.3145 646.522 52.8242 647.003 53.8438C647.319 53.3867 647.729 53.0176 648.233 52.7363C648.743 52.4551 649.344 52.3145 650.035 52.3145C652.121 52.3145 653.182 53.4189 653.217 55.6279V62H651.591V55.7246C651.591 55.0449 651.436 54.5381 651.125 54.2041C650.814 53.8643 650.293 53.6943 649.561 53.6943C648.957 53.6943 648.456 53.876 648.058 54.2393C647.659 54.5967 647.428 55.0801 647.363 55.6895V62H645.729V55.7686C645.729 54.3857 645.052 53.6943 643.698 53.6943C642.632 53.6943 641.902 54.1484 641.51 55.0566V62H639.884V52.4902H641.422ZM659.431 56.8936C659.431 58.2002 659.258 59.4541 658.912 60.6553C658.572 61.8506 658.048 62.9551 657.339 63.9688C656.636 64.9824 655.897 65.7031 655.124 66.1309L654.781 65.1377C655.684 64.4463 656.407 63.374 656.952 61.9209C657.503 60.4619 657.784 58.8447 657.796 57.0693V56.7881C657.796 55.5576 657.667 54.415 657.409 53.3604C657.151 52.2998 656.791 51.3506 656.328 50.5127C655.871 49.6748 655.355 49.0215 654.781 48.5527L655.124 47.5596C655.897 47.9873 656.633 48.7021 657.33 49.7041C658.033 50.7061 658.558 51.8105 658.903 53.0176C659.255 54.2246 659.431 55.5166 659.431 56.8936ZM661.681 53.3867C661.681 53.1055 661.763 52.8711 661.927 52.6836C662.097 52.4961 662.349 52.4023 662.683 52.4023C663.017 52.4023 663.269 52.4961 663.438 52.6836C663.614 52.8711 663.702 53.1055 663.702 53.3867C663.702 53.6562 663.614 53.8818 663.438 54.0635C663.269 54.2451 663.017 54.3359 662.683 54.3359C662.349 54.3359 662.097 54.2451 661.927 54.0635C661.763 53.8818 661.681 53.6562 661.681 53.3867ZM661.988 64.5488L661.065 63.916C661.616 63.1484 661.903 62.3574 661.927 61.543V60.0752H663.518V61.3496C663.518 61.9414 663.371 62.5332 663.078 63.125C662.791 63.7168 662.428 64.1914 661.988 64.5488Z" fill="#0C1714"/>
<path d="M260.258 48.333L261.189 48.9658C260.645 49.71 260.363 50.5127 260.346 51.374V52.5693H258.729V51.5498C258.729 50.9521 258.869 50.3604 259.15 49.7744C259.438 49.1885 259.807 48.708 260.258 48.333ZM263.026 48.333L263.958 48.9658C263.413 49.71 263.132 50.5127 263.114 51.374V52.5693H261.497V51.5498C261.497 50.9521 261.638 50.3604 261.919 49.7744C262.206 49.1885 262.575 48.708 263.026 48.333ZM267.614 50.1875V52.4902H269.39V53.7471H267.614V59.6445C267.614 60.0254 267.693 60.3125 267.852 60.5059C268.01 60.6934 268.279 60.7871 268.66 60.7871C268.848 60.7871 269.105 60.752 269.434 60.6816V62C269.006 62.1172 268.59 62.1758 268.186 62.1758C267.459 62.1758 266.911 61.9561 266.542 61.5166C266.173 61.0771 265.988 60.4531 265.988 59.6445V53.7471H264.257V52.4902H265.988V50.1875H267.614ZM273.063 62H271.438V52.4902H273.063V62ZM271.306 49.9678C271.306 49.7041 271.385 49.4814 271.543 49.2998C271.707 49.1182 271.947 49.0273 272.264 49.0273C272.58 49.0273 272.82 49.1182 272.984 49.2998C273.148 49.4814 273.23 49.7041 273.23 49.9678C273.23 50.2314 273.148 50.4512 272.984 50.627C272.82 50.8027 272.58 50.8906 272.264 50.8906C271.947 50.8906 271.707 50.8027 271.543 50.627C271.385 50.4512 271.306 50.2314 271.306 49.9678ZM277.203 52.4902L277.247 53.5449C277.944 52.7246 278.885 52.3145 280.068 52.3145C281.398 52.3145 282.304 52.8242 282.784 53.8438C283.101 53.3867 283.511 53.0176 284.015 52.7363C284.524 52.4551 285.125 52.3145 285.816 52.3145C287.902 52.3145 288.963 53.4189 288.998 55.6279V62H287.372V55.7246C287.372 55.0449 287.217 54.5381 286.906 54.2041C286.596 53.8643 286.074 53.6943 285.342 53.6943C284.738 53.6943 284.237 53.876 283.839 54.2393C283.44 54.5967 283.209 55.0801 283.145 55.6895V62H281.51V55.7686C281.51 54.3857 280.833 53.6943 279.479 53.6943C278.413 53.6943 277.684 54.1484 277.291 55.0566V62H275.665V52.4902H277.203ZM295.405 62.1758C294.116 62.1758 293.067 61.7539 292.259 60.9102C291.45 60.0605 291.046 58.9268 291.046 57.5088V57.21C291.046 56.2666 291.225 55.4258 291.582 54.6875C291.945 53.9434 292.449 53.3633 293.094 52.9473C293.744 52.5254 294.447 52.3145 295.203 52.3145C296.439 52.3145 297.4 52.7217 298.086 53.5361C298.771 54.3506 299.114 55.5166 299.114 57.0342V57.7109H292.672C292.695 58.6484 292.968 59.4072 293.489 59.9873C294.017 60.5615 294.685 60.8486 295.493 60.8486C296.067 60.8486 296.554 60.7314 296.952 60.4971C297.351 60.2627 297.699 59.9521 297.998 59.5654L298.991 60.3389C298.194 61.5635 296.999 62.1758 295.405 62.1758ZM295.203 53.6504C294.547 53.6504 293.996 53.8906 293.551 54.3711C293.105 54.8457 292.83 55.5137 292.725 56.375H297.488V56.252C297.441 55.4258 297.219 54.7871 296.82 54.3359C296.422 53.8789 295.883 53.6504 295.203 53.6504ZM307.859 63.3271H299.809V62H307.859V63.3271ZM309.072 61.1475C309.072 60.8662 309.154 60.6318 309.318 60.4443C309.488 60.2568 309.74 60.1631 310.074 60.1631C310.408 60.1631 310.66 60.2568 310.83 60.4443C311.006 60.6318 311.094 60.8662 311.094 61.1475C311.094 61.417 311.006 61.6426 310.83 61.8242C310.66 62.0059 310.408 62.0967 310.074 62.0967C309.74 62.0967 309.488 62.0059 309.318 61.8242C309.154 61.6426 309.072 61.417 309.072 61.1475ZM309.081 53.3867C309.081 53.1055 309.163 52.8711 309.327 52.6836C309.497 52.4961 309.749 52.4023 310.083 52.4023C310.417 52.4023 310.669 52.4961 310.839 52.6836C311.015 52.8711 311.103 53.1055 311.103 53.3867C311.103 53.6562 311.015 53.8818 310.839 54.0635C310.669 54.2451 310.417 54.3359 310.083 54.3359C309.749 54.3359 309.497 54.2451 309.327 54.0635C309.163 53.8818 309.081 53.6562 309.081 53.3867ZM313.177 51.6641C313.177 50.8965 313.42 50.2637 313.906 49.7656C314.398 49.2676 315.028 49.0186 315.796 49.0186C316.575 49.0186 317.205 49.2705 317.686 49.7744C318.172 50.2725 318.415 50.9199 318.415 51.7168V52.3408C318.415 53.1143 318.169 53.7471 317.677 54.2393C317.19 54.7256 316.569 54.9688 315.813 54.9688C315.052 54.9688 314.422 54.7256 313.924 54.2393C313.426 53.7471 313.177 53.0938 313.177 52.2793V51.6641ZM314.39 52.3408C314.39 52.7979 314.519 53.1758 314.776 53.4746C315.034 53.7676 315.38 53.9141 315.813 53.9141C316.229 53.9141 316.563 53.7705 316.815 53.4834C317.073 53.1963 317.202 52.8037 317.202 52.3057V51.6641C317.202 51.207 317.076 50.8291 316.824 50.5303C316.572 50.2314 316.229 50.082 315.796 50.082C315.362 50.082 315.02 50.2314 314.768 50.5303C314.516 50.8291 314.39 51.2188 314.39 51.6992V52.3408ZM319.408 58.8623C319.408 58.0947 319.651 57.4648 320.138 56.9727C320.63 56.4746 321.26 56.2256 322.027 56.2256C322.795 56.2256 323.425 56.4717 323.917 56.9639C324.409 57.4561 324.655 58.1094 324.655 58.9238V59.5479C324.655 60.3154 324.409 60.9482 323.917 61.4463C323.431 61.9385 322.807 62.1846 322.045 62.1846C321.283 62.1846 320.653 61.9414 320.155 61.4551C319.657 60.9629 319.408 60.3096 319.408 59.4951V58.8623ZM320.621 59.5479C320.621 60.0107 320.75 60.3916 321.008 60.6904C321.266 60.9834 321.611 61.1299 322.045 61.1299C322.467 61.1299 322.804 60.9863 323.056 60.6992C323.308 60.4062 323.434 60.0107 323.434 59.5127V58.8623C323.434 58.3994 323.305 58.0215 323.047 57.7285C322.795 57.4355 322.455 57.2891 322.027 57.2891C321.611 57.2891 321.271 57.4355 321.008 57.7285C320.75 58.0156 320.621 58.4053 320.621 58.8975V59.5479ZM316.183 61.0332L315.26 60.4531L321.509 50.4512L322.432 51.0312L316.183 61.0332ZM326.272 57.166C326.272 55.707 326.618 54.5352 327.31 53.6504C328.001 52.7598 328.906 52.3145 330.025 52.3145C331.139 52.3145 332.021 52.6953 332.671 53.457V48.5H334.297V62H332.803L332.724 60.9805C332.073 61.7773 331.168 62.1758 330.008 62.1758C328.906 62.1758 328.007 61.7246 327.31 60.8223C326.618 59.9199 326.272 58.7422 326.272 57.2891V57.166ZM327.898 57.3506C327.898 58.4287 328.121 59.2725 328.566 59.8818C329.012 60.4912 329.627 60.7959 330.412 60.7959C331.443 60.7959 332.196 60.333 332.671 59.4072V55.0391C332.185 54.1426 331.438 53.6943 330.43 53.6943C329.633 53.6943 329.012 54.002 328.566 54.6172C328.121 55.2324 327.898 56.1436 327.898 57.3506ZM345.107 60.8486C345.688 60.8486 346.194 60.6729 346.628 60.3213C347.062 59.9697 347.302 59.5303 347.349 59.0029H348.887C348.857 59.5479 348.67 60.0664 348.324 60.5586C347.979 61.0508 347.516 61.4434 346.936 61.7363C346.361 62.0293 345.752 62.1758 345.107 62.1758C343.812 62.1758 342.781 61.7451 342.014 60.8838C341.252 60.0166 340.871 58.833 340.871 57.333V57.0605C340.871 56.1348 341.041 55.3115 341.381 54.5908C341.721 53.8701 342.207 53.3105 342.84 52.9121C343.479 52.5137 344.231 52.3145 345.099 52.3145C346.165 52.3145 347.05 52.6338 347.753 53.2725C348.462 53.9111 348.84 54.7402 348.887 55.7598H347.349C347.302 55.1445 347.067 54.6406 346.646 54.248C346.229 53.8496 345.714 53.6504 345.099 53.6504C344.272 53.6504 343.631 53.9492 343.174 54.5469C342.723 55.1387 342.497 55.9971 342.497 57.1221V57.4297C342.497 58.5254 342.723 59.3691 343.174 59.9609C343.625 60.5527 344.27 60.8486 345.107 60.8486ZM350.284 57.1572C350.284 56.2256 350.466 55.3877 350.829 54.6436C351.198 53.8994 351.708 53.3252 352.358 52.9209C353.015 52.5166 353.762 52.3145 354.6 52.3145C355.895 52.3145 356.94 52.7627 357.737 53.6592C358.54 54.5557 358.941 55.748 358.941 57.2363V57.3506C358.941 58.2764 358.763 59.1084 358.405 59.8467C358.054 60.5791 357.547 61.1504 356.885 61.5605C356.229 61.9707 355.473 62.1758 354.617 62.1758C353.328 62.1758 352.282 61.7275 351.479 60.8311C350.683 59.9346 350.284 58.748 350.284 57.2715V57.1572ZM351.919 57.3506C351.919 58.4053 352.162 59.252 352.648 59.8906C353.141 60.5293 353.797 60.8486 354.617 60.8486C355.443 60.8486 356.1 60.5264 356.586 59.8818C357.072 59.2314 357.315 58.3232 357.315 57.1572C357.315 56.1143 357.066 55.2705 356.568 54.626C356.076 53.9756 355.42 53.6504 354.6 53.6504C353.797 53.6504 353.149 53.9697 352.657 54.6084C352.165 55.2471 351.919 56.1611 351.919 57.3506ZM366.852 61.0596C366.219 61.8037 365.29 62.1758 364.065 62.1758C363.052 62.1758 362.278 61.8828 361.745 61.2969C361.218 60.7051 360.951 59.832 360.945 58.6777V52.4902H362.571V58.6338C362.571 60.0752 363.157 60.7959 364.329 60.7959C365.571 60.7959 366.397 60.333 366.808 59.4072V52.4902H368.434V62H366.887L366.852 61.0596ZM372.45 52.4902L372.503 53.6855C373.229 52.7715 374.179 52.3145 375.351 52.3145C377.36 52.3145 378.374 53.4482 378.392 55.7158V62H376.766V55.707C376.76 55.0215 376.602 54.5146 376.291 54.1865C375.986 53.8584 375.509 53.6943 374.858 53.6943C374.331 53.6943 373.868 53.835 373.47 54.1162C373.071 54.3975 372.761 54.7666 372.538 55.2236V62H370.912V52.4902H372.45ZM383.05 50.1875V52.4902H384.825V53.7471H383.05V59.6445C383.05 60.0254 383.129 60.3125 383.287 60.5059C383.445 60.6934 383.715 60.7871 384.096 60.7871C384.283 60.7871 384.541 60.752 384.869 60.6816V62C384.441 62.1172 384.025 62.1758 383.621 62.1758C382.895 62.1758 382.347 61.9561 381.978 61.5166C381.608 61.0771 381.424 60.4531 381.424 59.6445V53.7471H379.692V52.4902H381.424V50.1875H383.05ZM386.68 61.1475C386.68 60.8662 386.762 60.6318 386.926 60.4443C387.096 60.2568 387.348 60.1631 387.682 60.1631C388.016 60.1631 388.268 60.2568 388.438 60.4443C388.613 60.6318 388.701 60.8662 388.701 61.1475C388.701 61.417 388.613 61.6426 388.438 61.8242C388.268 62.0059 388.016 62.0967 387.682 62.0967C387.348 62.0967 387.096 62.0059 386.926 61.8242C386.762 61.6426 386.68 61.417 386.68 61.1475ZM386.688 53.3867C386.688 53.1055 386.771 52.8711 386.935 52.6836C387.104 52.4961 387.356 52.4023 387.69 52.4023C388.024 52.4023 388.276 52.4961 388.446 52.6836C388.622 52.8711 388.71 53.1055 388.71 53.3867C388.71 53.6562 388.622 53.8818 388.446 54.0635C388.276 54.2451 388.024 54.3359 387.69 54.3359C387.356 54.3359 387.104 54.2451 386.935 54.0635C386.771 53.8818 386.688 53.6562 386.688 53.3867ZM390.784 51.6641C390.784 50.8965 391.027 50.2637 391.514 49.7656C392.006 49.2676 392.636 49.0186 393.403 49.0186C394.183 49.0186 394.812 49.2705 395.293 49.7744C395.779 50.2725 396.022 50.9199 396.022 51.7168V52.3408C396.022 53.1143 395.776 53.7471 395.284 54.2393C394.798 54.7256 394.177 54.9688 393.421 54.9688C392.659 54.9688 392.029 54.7256 391.531 54.2393C391.033 53.7471 390.784 53.0938 390.784 52.2793V51.6641ZM391.997 52.3408C391.997 52.7979 392.126 53.1758 392.384 53.4746C392.642 53.7676 392.987 53.9141 393.421 53.9141C393.837 53.9141 394.171 53.7705 394.423 53.4834C394.681 53.1963 394.81 52.8037 394.81 52.3057V51.6641C394.81 51.207 394.684 50.8291 394.432 50.5303C394.18 50.2314 393.837 50.082 393.403 50.082C392.97 50.082 392.627 50.2314 392.375 50.5303C392.123 50.8291 391.997 51.2188 391.997 51.6992V52.3408ZM397.016 58.8623C397.016 58.0947 397.259 57.4648 397.745 56.9727C398.237 56.4746 398.867 56.2256 399.635 56.2256C400.402 56.2256 401.032 56.4717 401.524 56.9639C402.017 57.4561 402.263 58.1094 402.263 58.9238V59.5479C402.263 60.3154 402.017 60.9482 401.524 61.4463C401.038 61.9385 400.414 62.1846 399.652 62.1846C398.891 62.1846 398.261 61.9414 397.763 61.4551C397.265 60.9629 397.016 60.3096 397.016 59.4951V58.8623ZM398.229 59.5479C398.229 60.0107 398.357 60.3916 398.615 60.6904C398.873 60.9834 399.219 61.1299 399.652 61.1299C400.074 61.1299 400.411 60.9863 400.663 60.6992C400.915 60.4062 401.041 60.0107 401.041 59.5127V58.8623C401.041 58.3994 400.912 58.0215 400.654 57.7285C400.402 57.4355 400.062 57.2891 399.635 57.2891C399.219 57.2891 398.879 57.4355 398.615 57.7285C398.357 58.0156 398.229 58.4053 398.229 58.8975V59.5479ZM393.79 61.0332L392.867 60.4531L399.116 50.4512L400.039 51.0312L393.79 61.0332ZM403.88 57.166C403.88 55.707 404.226 54.5352 404.917 53.6504C405.608 52.7598 406.514 52.3145 407.633 52.3145C408.746 52.3145 409.628 52.6953 410.278 53.457V48.5H411.904V62H410.41L410.331 60.9805C409.681 61.7773 408.775 62.1758 407.615 62.1758C406.514 62.1758 405.614 61.7246 404.917 60.8223C404.226 59.9199 403.88 58.7422 403.88 57.2891V57.166ZM405.506 57.3506C405.506 58.4287 405.729 59.2725 406.174 59.8818C406.619 60.4912 407.234 60.7959 408.02 60.7959C409.051 60.7959 409.804 60.333 410.278 59.4072V55.0391C409.792 54.1426 409.045 53.6943 408.037 53.6943C407.24 53.6943 406.619 54.002 406.174 54.6172C405.729 55.2324 405.506 56.1436 405.506 57.3506ZM422.715 60.8486C423.295 60.8486 423.802 60.6729 424.235 60.3213C424.669 59.9697 424.909 59.5303 424.956 59.0029H426.494C426.465 59.5479 426.277 60.0664 425.932 60.5586C425.586 61.0508 425.123 61.4434 424.543 61.7363C423.969 62.0293 423.359 62.1758 422.715 62.1758C421.42 62.1758 420.389 61.7451 419.621 60.8838C418.859 60.0166 418.479 58.833 418.479 57.333V57.0605C418.479 56.1348 418.648 55.3115 418.988 54.5908C419.328 53.8701 419.814 53.3105 420.447 52.9121C421.086 52.5137 421.839 52.3145 422.706 52.3145C423.772 52.3145 424.657 52.6338 425.36 53.2725C426.069 53.9111 426.447 54.7402 426.494 55.7598H424.956C424.909 55.1445 424.675 54.6406 424.253 54.248C423.837 53.8496 423.321 53.6504 422.706 53.6504C421.88 53.6504 421.238 53.9492 420.781 54.5469C420.33 55.1387 420.104 55.9971 420.104 57.1221V57.4297C420.104 58.5254 420.33 59.3691 420.781 59.9609C421.232 60.5527 421.877 60.8486 422.715 60.8486ZM429.852 52.4902L429.896 53.5449C430.593 52.7246 431.533 52.3145 432.717 52.3145C434.047 52.3145 434.952 52.8242 435.433 53.8438C435.749 53.3867 436.159 53.0176 436.663 52.7363C437.173 52.4551 437.773 52.3145 438.465 52.3145C440.551 52.3145 441.611 53.4189 441.646 55.6279V62H440.021V55.7246C440.021 55.0449 439.865 54.5381 439.555 54.2041C439.244 53.8643 438.723 53.6943 437.99 53.6943C437.387 53.6943 436.886 53.876 436.487 54.2393C436.089 54.5967 435.857 55.0801 435.793 55.6895V62H434.158V55.7686C434.158 54.3857 433.481 53.6943 432.128 53.6943C431.062 53.6943 430.332 54.1484 429.939 55.0566V62H428.313V52.4902H429.852ZM443.712 57.166C443.712 55.707 444.058 54.5352 444.749 53.6504C445.44 52.7598 446.346 52.3145 447.465 52.3145C448.578 52.3145 449.46 52.6953 450.11 53.457V48.5H451.736V62H450.242L450.163 60.9805C449.513 61.7773 448.607 62.1758 447.447 62.1758C446.346 62.1758 445.446 61.7246 444.749 60.8223C444.058 59.9199 443.712 58.7422 443.712 57.2891V57.166ZM445.338 57.3506C445.338 58.4287 445.561 59.2725 446.006 59.8818C446.451 60.4912 447.066 60.7959 447.852 60.7959C448.883 60.7959 449.636 60.333 450.11 59.4072V55.0391C449.624 54.1426 448.877 53.6943 447.869 53.6943C447.072 53.6943 446.451 54.002 446.006 54.6172C445.561 55.2324 445.338 56.1436 445.338 57.3506ZM454.215 61.1475C454.215 60.8662 454.297 60.6318 454.461 60.4443C454.631 60.2568 454.883 60.1631 455.217 60.1631C455.551 60.1631 455.803 60.2568 455.973 60.4443C456.148 60.6318 456.236 60.8662 456.236 61.1475C456.236 61.417 456.148 61.6426 455.973 61.8242C455.803 62.0059 455.551 62.0967 455.217 62.0967C454.883 62.0967 454.631 62.0059 454.461 61.8242C454.297 61.6426 454.215 61.417 454.215 61.1475ZM454.224 53.3867C454.224 53.1055 454.306 52.8711 454.47 52.6836C454.64 52.4961 454.892 52.4023 455.226 52.4023C455.56 52.4023 455.812 52.4961 455.981 52.6836C456.157 52.8711 456.245 53.1055 456.245 53.3867C456.245 53.6562 456.157 53.8818 455.981 54.0635C455.812 54.2451 455.56 54.3359 455.226 54.3359C454.892 54.3359 454.64 54.2451 454.47 54.0635C454.306 53.8818 454.224 53.6562 454.224 53.3867ZM458.319 51.6641C458.319 50.8965 458.562 50.2637 459.049 49.7656C459.541 49.2676 460.171 49.0186 460.938 49.0186C461.718 49.0186 462.348 49.2705 462.828 49.7744C463.314 50.2725 463.558 50.9199 463.558 51.7168V52.3408C463.558 53.1143 463.312 53.7471 462.819 54.2393C462.333 54.7256 461.712 54.9688 460.956 54.9688C460.194 54.9688 459.564 54.7256 459.066 54.2393C458.568 53.7471 458.319 53.0938 458.319 52.2793V51.6641ZM459.532 52.3408C459.532 52.7979 459.661 53.1758 459.919 53.4746C460.177 53.7676 460.522 53.9141 460.956 53.9141C461.372 53.9141 461.706 53.7705 461.958 53.4834C462.216 53.1963 462.345 52.8037 462.345 52.3057V51.6641C462.345 51.207 462.219 50.8291 461.967 50.5303C461.715 50.2314 461.372 50.082 460.938 50.082C460.505 50.082 460.162 50.2314 459.91 50.5303C459.658 50.8291 459.532 51.2188 459.532 51.6992V52.3408ZM464.551 58.8623C464.551 58.0947 464.794 57.4648 465.28 56.9727C465.772 56.4746 466.402 56.2256 467.17 56.2256C467.938 56.2256 468.567 56.4717 469.06 56.9639C469.552 57.4561 469.798 58.1094 469.798 58.9238V59.5479C469.798 60.3154 469.552 60.9482 469.06 61.4463C468.573 61.9385 467.949 62.1846 467.188 62.1846C466.426 62.1846 465.796 61.9414 465.298 61.4551C464.8 60.9629 464.551 60.3096 464.551 59.4951V58.8623ZM465.764 59.5479C465.764 60.0107 465.893 60.3916 466.15 60.6904C466.408 60.9834 466.754 61.1299 467.188 61.1299C467.609 61.1299 467.946 60.9863 468.198 60.6992C468.45 60.4062 468.576 60.0107 468.576 59.5127V58.8623C468.576 58.3994 468.447 58.0215 468.189 57.7285C467.938 57.4355 467.598 57.2891 467.17 57.2891C466.754 57.2891 466.414 57.4355 466.15 57.7285C465.893 58.0156 465.764 58.4053 465.764 58.8975V59.5479ZM461.325 61.0332L460.402 60.4531L466.651 50.4512L467.574 51.0312L461.325 61.0332ZM477.348 59.4775C477.348 59.0381 477.181 58.6982 476.847 58.458C476.519 58.2119 475.941 58.001 475.115 57.8252C474.295 57.6494 473.642 57.4385 473.155 57.1924C472.675 56.9463 472.317 56.6533 472.083 56.3135C471.854 55.9736 471.74 55.5693 471.74 55.1006C471.74 54.3213 472.068 53.6621 472.725 53.123C473.387 52.584 474.23 52.3145 475.256 52.3145C476.334 52.3145 477.207 52.5928 477.875 53.1494C478.549 53.7061 478.886 54.418 478.886 55.2852H477.251C477.251 54.8398 477.061 54.4561 476.68 54.1338C476.305 53.8115 475.83 53.6504 475.256 53.6504C474.664 53.6504 474.201 53.7793 473.867 54.0371C473.533 54.2949 473.366 54.6318 473.366 55.0479C473.366 55.4404 473.521 55.7363 473.832 55.9355C474.143 56.1348 474.702 56.3252 475.511 56.5068C476.325 56.6885 476.984 56.9053 477.488 57.1572C477.992 57.4092 478.364 57.7139 478.604 58.0713C478.851 58.4229 478.974 58.8535 478.974 59.3633C478.974 60.2129 478.634 60.8955 477.954 61.4111C477.274 61.9209 476.393 62.1758 475.309 62.1758C474.547 62.1758 473.873 62.041 473.287 61.7715C472.701 61.502 472.241 61.127 471.907 60.6465C471.579 60.1602 471.415 59.6357 471.415 59.0732H473.041C473.07 59.6182 473.287 60.0518 473.691 60.374C474.102 60.6904 474.641 60.8486 475.309 60.8486C475.924 60.8486 476.416 60.7256 476.785 60.4795C477.16 60.2275 477.348 59.8936 477.348 59.4775ZM481.312 52.8066L480.389 52.1738C480.934 51.4121 481.215 50.6094 481.232 49.7656V48.5H482.841V49.6426C482.835 50.2285 482.688 50.8145 482.401 51.4004C482.12 51.9805 481.757 52.4492 481.312 52.8066ZM484.01 52.8066L483.087 52.1738C483.632 51.4121 483.913 50.6094 483.931 49.7656V48.5H485.539V49.6426C485.533 50.2285 485.387 50.8145 485.1 51.4004C484.818 51.9805 484.455 52.4492 484.01 52.8066Z" fill="#E5E5E5"/>
<path d="M301 69V92.3947C301 103.44 292.046 112.395 281 112.395H173C161.954 112.395 153 121.349 153 132.395V154" stroke="#E5E5E5" stroke-width="3"/>
<path d="M375 65.5L374 154" stroke="#E5E5E5" stroke-width="3"/>
<path d="M450 68V88.6927C450 99.7384 458.954 108.693 470 108.693H648C659.046 108.693 668 117.647 668 128.693V154" stroke="#E5E5E5" stroke-width="3"/>
</svg>
