<svg width="45" height="50" viewBox="0 0 45 50" fill="none" xmlns="http://www.w3.org/2000/svg">
<path d="M17.4761 17.1631H19.529V23.2182L25.4406 17.1631H28.1507L21.6643 23.8345L28.5609 31.5325H25.9336L19.529 24.348V31.5325H17.4761V17.1631Z" fill="#3FE7E7"/>
<path d="M23.9068 11.4605L34.0172 17.2977C34.1895 17.3977 34.2958 17.5818 34.2958 17.7806V29.4553C34.2958 29.6543 34.4027 29.8385 34.5751 29.9381L43.5975 35.1475C43.9693 35.3624 44.434 35.0937 44.434 34.6647V11.9269C44.434 11.7278 44.3278 11.5439 44.1554 11.444L24.4647 0.0754999C24.0928 -0.139082 23.6274 0.129301 23.6274 0.558464V10.9777C23.6274 11.1765 23.7339 11.3607 23.9068 11.4605Z" fill="#3FE7E7"/>
<path d="M32.6061 32.3814L22.4957 38.2186C22.3234 38.3185 22.1104 38.3185 21.9381 38.2186L10.4169 31.5668C10.2445 31.4669 10.1376 31.2827 10.1376 31.0839V17.7801C10.1376 17.5811 10.2445 17.3971 10.4169 17.2972L20.5273 11.4598C20.7001 11.3602 20.8064 11.176 20.8064 10.9772V0.558462C20.8064 0.129304 20.3412 -0.139081 19.9694 0.0755008L0.278652 11.444C0.106263 11.5439 0 11.7278 0 11.9269V36.9372C0 37.136 0.106263 37.3201 0.278652 37.4201L21.9381 49.9251C22.1104 50.025 22.3234 50.025 22.4957 49.9251L42.1865 38.5569C42.5583 38.3421 42.5583 37.8054 42.1865 37.5908L33.1641 32.3814C32.991 32.2815 32.7785 32.2815 32.6061 32.3814Z" fill="#3FE7E7"/>
</svg>
