<svg width="57" height="50" viewBox="0 0 57 50" fill="none" xmlns="http://www.w3.org/2000/svg">
<path d="M13.0624 46.9768L1.54212 27.0232C0.819295 25.7712 0.819294 24.2288 1.54212 22.9768L13.0624 3.02321C13.7852 1.77125 15.121 1 16.5667 1H39.6072C41.0529 1 42.3887 1.77125 43.1115 3.02321L54.6318 22.9768C55.3546 24.2288 55.3546 25.7712 54.6318 27.0232L43.1115 46.9768C42.3887 48.2288 41.0529 49 39.6072 49H16.5667C15.1211 49 13.7852 48.2288 13.0624 46.9768Z" stroke="#3FE7E7" stroke-width="2"/>
<path d="M39.0697 17.9753L28.6792 11.9763C28.3128 11.7647 27.8613 11.7647 27.4949 11.9763L17.1044 17.9753C16.738 18.1869 16.5122 18.5778 16.5122 19.0009V30.9989C16.5122 31.422 16.7379 31.813 17.1044 32.0245L27.4949 38.0235C27.8613 38.2351 28.3128 38.2351 28.6792 38.0235L39.0697 32.0245C39.4362 31.8129 39.6619 31.422 39.6619 30.9989V19.0009C39.6619 18.5778 39.4362 18.1868 39.0697 17.9753ZM37.6442 29.8494L34.0191 27.7565V22.2433L28.6658 25.3341V31.5155L33.4404 28.7589L37.0655 30.8518L28.0871 36.0355L19.1087 30.8518L22.7338 28.7589L27.5083 31.5155V25.3341L22.155 22.2433V27.7565L18.5299 29.8494V19.4821L27.5083 14.2984V18.4843L22.7337 21.2409L28.0871 24.3316L33.4403 21.2409L28.6658 18.4843V14.2983L37.6442 19.482V29.8494H37.6442Z" fill="#3FE7E7"/>
</svg>
