<svg width="55" height="40" viewBox="0 0 55 40" fill="none" xmlns="http://www.w3.org/2000/svg">
<path d="M24.788 10.1955L16.5044 13.3597V0L24.788 2.93343V10.1955Z" fill="#3FE7E7"/>
<path d="M8.96973 2.19682V10.9711L15.1746 13.3315V0L8.96973 2.19682ZM9.65001 10.3353L9.31203 10.2302V2.96485L9.65001 2.86952L10.0053 2.76986L10.3834 2.6637V10.5627L10.0053 10.4458L9.65001 10.3353ZM11.2055 10.8173L10.7809 10.6862V2.55105L11.2055 2.43189L11.6551 2.30515L12.1361 2.16974V11.1054L11.6551 10.956L11.2055 10.8173ZM13.1987 11.4337L12.6484 11.2636V2.02567L13.1987 1.87077L13.7858 1.70503L14.4206 1.5263V11.8128L13.7858 11.6167L13.1987 11.4337Z" fill="#3FE7E7"/>
<path d="M44.1777 10.1955L35.8931 13.3597V0L44.1777 2.93343V10.1955Z" fill="#3FE7E7"/>
<path d="M28.3604 2.19682V10.9711L34.5652 13.3315V0L28.3604 2.19682ZM29.0395 10.3353L28.7016 10.2302V2.96485L29.0395 2.86952L29.3949 2.76986L29.7729 2.6637V10.5627L29.3949 10.4458L29.0395 10.3353ZM30.5951 10.8173L30.1705 10.6862V2.55105L30.5951 2.43189L31.0446 2.30515L31.5256 2.16974V11.1054L31.0446 10.956L30.5951 10.8173ZM32.5883 11.4337L32.038 11.2636V2.02567L32.5883 1.87077L33.1754 1.70503L33.8102 1.5263V11.8128L33.1754 11.6167L32.5883 11.4337Z" fill="#3FE7E7"/>
<path d="M24.788 36.8367L16.5044 39.9998V26.6401L24.788 29.5747V36.8367Z" fill="#3FE7E7"/>
<path d="M8.96973 28.838V37.6123L15.1746 39.9727V26.6401L8.96973 28.838ZM9.65001 36.9765L9.31203 36.8714V29.6061L9.65001 29.5107L10.0053 29.4111L10.3834 29.3049V37.204L10.0053 37.087L9.65001 36.9765ZM11.2055 37.4574L10.7809 37.3264V29.1923L11.2055 29.072L11.6551 28.9453L12.1361 28.8099V37.7456L11.6551 37.5961L11.2055 37.4574ZM13.1987 38.0749L12.6484 37.9048V28.6658L13.1987 28.5109L13.7858 28.3452L14.4206 28.1664V38.4529L13.7858 38.2569L13.1987 38.0749Z" fill="#3FE7E7"/>
<path d="M44.1777 36.8367L35.8931 39.9998V26.6401L44.1777 29.5747V36.8367Z" fill="#3FE7E7"/>
<path d="M28.3604 28.838V37.6123L34.5652 39.9727V26.6401L28.3604 28.838ZM29.0395 36.9765L28.7016 36.8714V29.6061L29.0395 29.5107L29.3949 29.4111L29.7729 29.3049V37.204L29.3949 37.087L29.0395 36.9765ZM30.5951 37.4574L30.1705 37.3264V29.1923L30.5951 29.072L31.0446 28.9453L31.5256 28.8099V37.7456L31.0446 37.5961L30.5951 37.4574ZM32.5883 38.0749L32.038 37.9048V28.6658L32.5883 28.5109L33.1754 28.3452L33.8102 28.1664V38.4529L33.1754 38.2569L32.5883 38.0749Z" fill="#3FE7E7"/>
<path d="M35.1074 23.4773L26.8228 26.6403V13.2817L35.1074 16.2152V23.4773Z" fill="#3FE7E7"/>
<path d="M19.2896 15.4786V24.2529L25.4944 26.6133V13.2817L19.2896 15.4786ZM19.9687 23.617L19.6308 23.5119V16.2466L19.9687 16.1513L20.3241 16.0516L20.7021 15.9454V23.8445L20.3241 23.7275L19.9687 23.617ZM21.5243 24.099L21.0997 23.968V15.8339L21.5243 15.7147L21.9738 15.588L22.4548 15.4526V24.3883L21.9738 24.2388L21.5243 24.099ZM23.5175 24.7154L22.9672 24.5453V15.3074L23.5175 15.1525L24.1046 14.9868L24.7394 14.808V25.0945L24.1046 24.8985L23.5175 24.7154Z" fill="#3FE7E7"/>
<path d="M15.8179 23.4773L7.5332 26.6403V13.2817L15.8179 16.2152V23.4773Z" fill="#3FE7E7"/>
<path d="M0 15.4786V24.2529L6.20484 26.6133V13.2817L0 15.4786ZM0.679196 23.617L0.341223 23.5119V16.2466L0.679196 16.1513L1.0345 16.0516L1.41255 15.9454V23.8445L1.0345 23.7275L0.679196 23.617ZM2.23474 24.099L1.81011 23.968V15.8339L2.23474 15.7147L2.68429 15.588L3.16633 15.4504V24.3861L2.68537 24.2366L2.23474 24.099ZM4.22791 24.7154L3.67762 24.5453V15.3074L4.22791 15.1525L4.81503 14.9868L5.44982 14.808V25.0945L4.81503 24.8985L4.22791 24.7154Z" fill="#3FE7E7"/>
<path d="M54.1538 23.4773L45.8691 26.6403V13.2817L54.1538 16.2152V23.4773Z" fill="#3FE7E7"/>
<path d="M38.3364 15.4786V24.2529L44.5413 26.6133V13.2817L38.3364 15.4786ZM39.0156 23.617L38.6777 23.5119V16.2466L39.0156 16.1513L39.3709 16.0516L39.749 15.9454V23.8445L39.3709 23.7275L39.0156 23.617ZM40.5712 24.099L40.1465 23.968V15.8339L40.5712 15.7147L41.0207 15.588L41.5017 15.4526V24.3883L41.0207 24.2388L40.5712 24.099ZM42.5643 24.7154L42.0141 24.5453V15.3074L42.5643 15.1525L43.1515 14.9868L43.7862 14.808V25.0945L43.1515 24.8985L42.5643 24.7154Z" fill="#3FE7E7"/>
</svg>
