<svg width="44" height="16" viewBox="0 0 44 16" fill="none" xmlns="http://www.w3.org/2000/svg">
<path d="M1.85898 11V4.44H2.71898L5.08898 8.56L5.79898 9.92H5.83898C5.81898 9.58667 5.79565 9.24333 5.76898 8.89C5.74898 8.53 5.73898 8.17667 5.73898 7.83V4.44H6.52898V11H5.66898L3.28898 6.87L2.57898 5.52H2.53898C2.56565 5.85333 2.58898 6.19333 2.60898 6.54C2.63565 6.88 2.64898 7.22333 2.64898 7.57V11H1.85898ZM8.33359 11V4.44H12.1136V5.14H9.16359V7.2H11.6536V7.91H9.16359V10.29H12.2136V11H8.33359ZM12.857 11L14.767 7.61L12.987 4.44H13.907L14.797 6.12C14.8837 6.27333 14.9637 6.42333 15.037 6.57C15.117 6.71 15.207 6.87667 15.307 7.07H15.347C15.4404 6.87667 15.5204 6.71 15.587 6.57C15.6604 6.42333 15.737 6.27333 15.817 6.12L16.687 4.44H17.567L15.777 7.65L17.687 11H16.767L15.807 9.23C15.7204 9.07 15.6304 8.90667 15.537 8.74C15.4504 8.56667 15.3537 8.38 15.247 8.18H15.207C15.1137 8.38 15.0237 8.56667 14.937 8.74C14.8504 8.90667 14.767 9.07 14.687 9.23L13.737 11H12.857ZM19.8987 11V5.14H17.9187V4.44H22.7187V5.14H20.7387V11H19.8987Z" fill="#4A4C4F"/>
<path d="M33.1748 0.5L40.6748 8L33.1748 15.5L31.2998 13.625L36.9248 8L31.2998 2.375L33.1748 0.5Z" fill="#4A4C4F"/>
</svg>
