<svg width="44" height="16" viewBox="0 0 43 16" fill="none" xmlns="http://www.w3.org/2000/svg">
    <path d="M21.87 11H22.71V8.4H23.89C25.32 8.4 26.31 7.75 26.31 6.37C26.31 4.93 25.34 4.44 23.89 4.44H21.87V11ZM22.71 7.72V5.11H23.78C24.91 5.11 25.48 5.42 25.48 6.37C25.48 7.3 24.93 7.72 23.78 7.72H22.71ZM28.4229 5.11H29.5229C30.5429 5.11 31.1029 5.42 31.1029 6.28C31.1029 7.13 30.5429 7.55 29.5229 7.55H28.4229V5.11ZM32.1329 11L30.4629 8.14C31.3529 7.91 31.9329 7.3 31.9329 6.28C31.9329 4.92 30.9729 4.44 29.6429 4.44H27.5829V11H28.4229V8.23H29.6029L31.1829 11H32.1329ZM33.3446 11H37.2246V10.29H34.1846V7.91H36.6646V7.2H34.1846V5.14H37.1246V4.44H33.3446V11ZM39.7692 11H40.7392L42.8192 4.44H41.9692L40.9192 7.98C40.6992 8.76 40.5292 9.38 40.2892 10.15H40.2492C40.0092 9.38 39.8492 8.76 39.6192 7.98L38.5592 4.44H37.6792L39.7692 11Z" fill="#4A4C4F"/>
    <path d="M10.825 0.5L3.32495 8L10.825 15.5L12.7 13.625L7.07495 8L12.7 2.375L10.825 0.5Z" fill="#4A4C4F"/>
</svg>
