<svg width="52" height="50" viewBox="0 0 52 50" fill="none" xmlns="http://www.w3.org/2000/svg">
<g clip-path="url(#clip0)">
<path d="M25.802 1.59171C26.2663 1.59171 26.7306 1.6912 27.1618 1.89019L43.9432 9.88294C44.8055 10.3141 45.4688 11.11 45.6678 12.0387L49.8134 30.0472C50.0456 31.009 49.8134 32.0039 49.1833 32.7667L37.5756 47.1935C36.9786 47.9563 36.05 48.3874 35.0882 48.3874H16.4827C15.5209 48.3874 14.5923 47.9563 13.9953 47.1935L2.38759 32.7667C1.79062 32.0039 1.55847 31.009 1.75746 30.0472L5.90307 12.0387C6.13523 11.0769 6.76536 10.2809 7.62765 9.88294L24.4091 1.85703C24.8402 1.6912 25.3377 1.59171 25.802 1.59171ZM25.802 0.032959C25.1056 0.032959 24.4091 0.198784 23.7458 0.497268L6.96435 8.52318C5.63775 9.15331 4.70913 10.3141 4.37749 11.7402L0.23187 29.7487C-0.0997791 31.1748 0.23187 32.6341 1.16049 33.7948L12.7682 48.2216C13.6637 49.3492 15.0234 49.9793 16.4495 49.9793H35.055C36.4811 49.9793 37.8409 49.3492 38.7363 48.2216L50.3441 33.7948C51.2727 32.6672 51.6043 31.1748 51.2727 29.7487L47.1271 11.7402C46.7954 10.3141 45.8668 9.15331 44.5402 8.52318L27.8251 0.497268C27.195 0.198784 26.4985 0.032959 25.802 0.032959Z" fill="#3FE7E7"/>
<path d="M42.6164 28.6212C42.5832 28.6212 42.5832 28.6212 42.6164 28.6212H42.5832C42.55 28.6212 42.5169 28.6212 42.5169 28.588C42.4505 28.588 42.3842 28.5548 42.3179 28.5548C42.0857 28.5217 41.8867 28.4885 41.6877 28.4885C41.5882 28.4885 41.4887 28.4885 41.3561 28.4553H41.3229C40.6265 28.389 40.0627 28.3227 39.532 28.1568C39.2999 28.0574 39.2335 27.9247 39.1672 27.792C39.1672 27.7589 39.134 27.7589 39.134 27.7257L38.7029 27.593C38.9019 26.0675 38.8356 24.4755 38.4707 22.9168C38.1059 21.358 37.4758 19.8988 36.6135 18.5722L36.9451 18.2737V18.2074C36.9451 18.0415 36.9783 17.8757 37.111 17.7099C37.509 17.3451 38.0064 17.0466 38.6034 16.6818C38.7029 16.6155 38.8024 16.5823 38.9019 16.516C39.1009 16.4165 39.2667 16.317 39.4657 16.1843C39.4988 16.1511 39.5652 16.118 39.6315 16.0517C39.6647 16.0185 39.6978 16.0185 39.6978 15.9853C40.1621 15.5873 40.2616 14.924 39.93 14.4929C39.7642 14.2607 39.4657 14.1281 39.1672 14.1281C38.9019 14.1281 38.6697 14.2276 38.4376 14.3934C38.4044 14.4266 38.4044 14.4266 38.3712 14.4597C38.3049 14.4929 38.2717 14.5592 38.2054 14.5924C38.0396 14.7582 37.9069 14.8909 37.7743 15.0567C37.7079 15.123 37.6416 15.2225 37.5421 15.2889C37.0778 15.7863 36.6467 16.1843 36.2155 16.4828C36.116 16.5491 36.0165 16.5823 35.917 16.5823C35.8507 16.5823 35.7844 16.5823 35.718 16.5491H35.6517L35.2537 16.8144C34.8226 16.3501 34.3583 15.9522 33.894 15.5542C31.9041 13.9954 29.483 13.0336 26.9625 12.8015L26.9293 12.3703C26.8962 12.3372 26.8962 12.3372 26.863 12.304C26.7635 12.2045 26.6309 12.105 26.5977 11.8729C26.5645 11.3422 26.6309 10.7453 26.6972 10.082V10.0488C26.6972 9.94931 26.7304 9.81665 26.7635 9.71715C26.7967 9.51816 26.8299 9.31917 26.863 9.08702V8.88803V8.78853C26.863 8.19157 26.3987 7.69409 25.8349 7.69409C25.5696 7.69409 25.3043 7.82675 25.1053 8.02574C24.9063 8.22473 24.8068 8.49005 24.8068 8.78853V8.85486V9.05385C24.8068 9.28601 24.84 9.485 24.9063 9.68399C24.9395 9.78348 24.9395 9.88298 24.9726 10.0156V10.0488C25.0389 10.7121 25.1384 11.3091 25.0721 11.8397C25.0389 12.0719 24.9063 12.1714 24.8068 12.2708C24.7736 12.304 24.7736 12.304 24.7405 12.3372L24.7073 12.7683C24.1103 12.8347 23.5134 12.901 22.9164 13.0336C20.3627 13.5974 18.1075 14.8909 16.3497 16.7481L16.0181 16.516H15.9518C15.8854 16.516 15.8191 16.5491 15.7528 16.5491C15.6533 16.5491 15.5538 16.516 15.4543 16.4496C15.0231 16.1511 14.592 15.72 14.1277 15.2225C14.0614 15.1562 13.995 15.0567 13.8955 14.9904C13.7629 14.8245 13.6302 14.6919 13.4644 14.5261C13.4312 14.4929 13.3649 14.4597 13.2986 14.3934C13.2654 14.3602 13.2322 14.3602 13.2322 14.3271C13.0332 14.1613 12.7679 14.0618 12.5026 14.0618C12.2041 14.0618 11.9056 14.1944 11.7398 14.4266C11.4082 14.8577 11.5077 15.521 11.972 15.919C12.0051 15.919 12.0051 15.9522 12.0383 15.9522C12.1046 15.9853 12.1378 16.0517 12.2041 16.0848C12.4031 16.2175 12.5689 16.317 12.7679 16.4165C12.8674 16.4496 12.9669 16.516 13.0664 16.5823C13.6634 16.9471 14.1609 17.2456 14.5588 17.6104C14.7247 17.7762 14.7247 17.942 14.7247 18.1079V18.1742L15.0563 18.4727C14.99 18.5722 14.9236 18.6385 14.8905 18.738C13.2322 21.358 12.6021 24.4424 13.0332 27.4935L12.6021 27.6262C12.6021 27.6594 12.5689 27.6594 12.5689 27.6925C12.5026 27.8252 12.4031 27.9579 12.2041 28.0574C11.7067 28.2232 11.1097 28.2895 10.4132 28.3558H10.3801C10.2806 28.3558 10.1479 28.3558 10.0484 28.389C9.84942 28.389 9.65043 28.4222 9.41827 28.4553C9.35194 28.4553 9.28561 28.4885 9.21928 28.4885C9.18612 28.4885 9.15295 28.4885 9.11979 28.5217C8.52282 28.6543 8.158 29.2181 8.2575 29.7488C8.35699 30.2131 8.78814 30.5116 9.31878 30.5116C9.41827 30.5116 9.4846 30.5116 9.5841 30.4784C9.61726 30.4784 9.65043 30.4784 9.65043 30.4452C9.71676 30.4452 9.78308 30.4121 9.84941 30.4121C10.0816 30.3457 10.2474 30.2794 10.4464 30.1799C10.5459 30.1467 10.6454 30.0804 10.7449 30.0472H10.778C11.4082 29.8151 11.972 29.6161 12.5026 29.5498H12.5689C12.7679 29.5498 12.9006 29.6493 13.0001 29.7156C13.0332 29.7156 13.0332 29.7488 13.0664 29.7488L13.5307 29.6824C14.3267 32.1366 15.8523 34.3255 17.8753 35.9174C18.3396 36.2822 18.8039 36.5807 19.3014 36.8792L19.1024 37.3104C19.1024 37.3435 19.1356 37.3435 19.1356 37.3767C19.2019 37.5094 19.2683 37.6752 19.2019 37.9073C19.0029 38.4048 18.7044 38.9023 18.3396 39.4661V39.4992C18.2733 39.5987 18.207 39.6651 18.1406 39.7646C18.008 39.9304 17.9085 40.0962 17.7758 40.2952C17.7427 40.3284 17.7095 40.3947 17.6763 40.461C17.6763 40.4942 17.6432 40.5274 17.6432 40.5274C17.3779 41.0912 17.5768 41.7213 18.0743 41.9534C18.207 42.0198 18.3396 42.0529 18.4723 42.0529C18.8703 42.0529 19.2683 41.7876 19.4672 41.4228C19.4672 41.3896 19.5004 41.3565 19.5004 41.3565C19.5336 41.2901 19.5667 41.2238 19.5999 41.1907C19.6994 40.9585 19.7326 40.7927 19.7989 40.5937C19.8321 40.4942 19.8652 40.3947 19.8984 40.2952C20.1305 39.6319 20.2964 39.1013 20.5948 38.637C20.7275 38.438 20.8933 38.4048 21.026 38.3385C21.0592 38.3385 21.0592 38.3385 21.0923 38.3053L21.3245 37.8742C22.7837 38.438 24.3756 38.7365 25.9676 38.7365C26.9293 38.7365 27.9243 38.637 28.8529 38.4048C29.4499 38.2721 30.0137 38.1063 30.5775 37.9073L30.7765 38.2721C30.8096 38.2721 30.8096 38.2721 30.8428 38.3053C31.0086 38.3385 31.1413 38.4048 31.274 38.6038C31.5393 39.0681 31.7383 39.6319 31.9704 40.262V40.2952C32.0036 40.3947 32.0367 40.4942 32.0699 40.5937C32.1362 40.7927 32.1694 40.9917 32.2689 41.1907C32.3021 41.257 32.3352 41.2901 32.3684 41.3565C32.3684 41.3896 32.4016 41.4228 32.4016 41.4228C32.6005 41.8208 32.9985 42.0529 33.3965 42.0529C33.5292 42.0529 33.6618 42.0198 33.7945 41.9534C34.0266 41.8208 34.2256 41.6218 34.292 41.3565C34.3583 41.0912 34.3583 40.7927 34.2256 40.5274C34.2256 40.4942 34.1925 40.4942 34.1925 40.461C34.1593 40.3947 34.1261 40.3284 34.093 40.2952C33.9935 40.0962 33.8608 39.9304 33.7282 39.7646C33.6618 39.6651 33.5955 39.5987 33.5292 39.4992V39.4661C33.1644 38.9023 32.8327 38.4048 32.6669 37.9073C32.6005 37.6752 32.6669 37.5425 32.7 37.3767C32.7 37.3435 32.7332 37.3435 32.7332 37.3104L32.5674 36.9124C34.3251 35.8843 35.8175 34.425 36.9451 32.6341C37.5421 31.7055 38.0064 30.6774 38.3381 29.6493L38.7361 29.7156C38.7692 29.7156 38.7692 29.6824 38.8024 29.6824C38.935 29.6161 39.0345 29.5166 39.2335 29.5166H39.2999C39.8305 29.5829 40.3943 29.7819 41.0244 30.0141H41.0576C41.1571 30.0472 41.2566 30.1136 41.3561 30.1467C41.5551 30.2462 41.7209 30.3126 41.9531 30.3789C42.0194 30.3789 42.0857 30.4121 42.152 30.4121C42.1852 30.4121 42.2184 30.4121 42.2515 30.4452C42.351 30.4784 42.4174 30.4784 42.5169 30.4784C43.0143 30.4784 43.4455 30.1467 43.5781 29.7156C43.5781 29.3176 43.2133 28.787 42.6164 28.6212ZM27.261 26.9961L25.8017 27.6925L24.3425 26.9961L23.9777 25.4373L24.9726 24.1771H26.5977L27.5926 25.4373L27.261 26.9961ZM35.917 23.5469C36.1824 24.6745 36.2487 25.8021 36.1492 26.8966L31.075 25.4373C30.6107 25.3047 30.3453 24.8404 30.4448 24.376C30.478 24.2434 30.5443 24.1107 30.6438 24.0112L34.6568 20.3963C35.2206 21.3249 35.6517 22.3862 35.917 23.5469ZM33.0649 18.4064L28.7203 21.4907C28.3554 21.7229 27.858 21.6565 27.5595 21.2917C27.46 21.1922 27.4268 21.0596 27.3937 20.9269L27.0952 15.521C29.3836 15.7863 31.4729 16.8144 33.0649 18.4064ZM23.447 15.6868C23.8118 15.6205 24.1435 15.5542 24.5083 15.4878L24.2098 20.7942C24.1767 21.2585 23.8118 21.6565 23.3144 21.6565C23.1817 21.6565 23.0159 21.6234 22.9164 21.557L18.5055 18.4064C19.8652 17.0466 21.5566 16.118 23.447 15.6868ZM16.9135 20.3963L20.8602 23.9117C21.225 24.2102 21.2581 24.774 20.9597 25.1388C20.8602 25.2715 20.7275 25.371 20.5617 25.4042L15.4211 26.8966C15.2221 24.6414 15.7196 22.353 16.9135 20.3963ZM16.0181 29.3839L21.2913 28.4885C21.7225 28.4553 22.1204 28.7538 22.2199 29.185C22.2531 29.3839 22.2531 29.5498 22.1868 29.7156L20.1637 34.5908C18.3065 33.3969 16.814 31.5728 16.0181 29.3839ZM28.1233 35.9838C27.3605 36.1496 26.5977 36.2491 25.8017 36.2491C24.641 36.2491 23.5134 36.0501 22.4521 35.7184L25.0721 30.9759C25.3374 30.6774 25.7686 30.5447 26.1334 30.7437C26.2992 30.8432 26.4319 30.9759 26.5314 31.1085L29.0851 35.7184C28.7866 35.8179 28.4549 35.8843 28.1233 35.9838ZM34.5904 31.3738C33.7613 32.7004 32.6669 33.7617 31.4066 34.5908L29.3172 29.5829C29.2177 29.185 29.3836 28.7538 29.7815 28.5548C29.9142 28.4885 30.08 28.4553 30.2458 28.4553L35.5522 29.3508C35.3532 30.0804 35.0216 30.7437 34.5904 31.3738Z" fill="#3FE7E7"/>
</g>
<defs>
<clipPath id="clip0">
<rect width="51.4056" height="50" fill="white"/>
</clipPath>
</defs>
</svg>
