<svg width="32" height="32" viewBox="0 0 32 32" fill="none" xmlns="http://www.w3.org/2000/svg">
<path fill-rule="evenodd" clip-rule="evenodd" d="M24.7256 14.3628C24.7256 9.19186 20.5337 5 15.3628 5C10.1919 5 6 9.19186 6 14.3628C6 19.5337 10.1919 23.7256 15.3628 23.7256C17.2673 23.7256 19.039 23.1569 20.5174 22.1802L25.3376 27L26.5867 25.7508L21.901 21.0646C23.6436 19.3642 24.7256 16.9899 24.7256 14.3628ZM7.76656 14.3628C7.76656 10.1675 11.1675 6.76656 15.3628 6.76656C19.5581 6.76656 22.959 10.1675 22.959 14.3628C22.959 18.5581 19.5581 21.959 15.3628 21.959C11.1675 21.959 7.76656 18.5581 7.76656 14.3628Z" fill="#121212"/>
</svg>
