<svg width="430" height="217" viewBox="0 0 430 217" fill="none" xmlns="http://www.w3.org/2000/svg">
<path d="M371 66H377.905V73.1089H371V66Z" fill="#404040"/>
<path d="M240 166H246.905V173.109H240V166Z" fill="#404040"/>
<path d="M421.244 66H428.148V73.1089H421.244V66Z" fill="#3FE7E7"/>
<path d="M0.177837 181.228H7.08252V188.337H0.177837V181.228Z" fill="#3FE7E7"/>
<path d="M331 130H337.905V137.109H331V130Z" fill="#404040"/>
<path d="M429.971 119H423V126.013H429.971V119Z" fill="#3A444E"/>
<path d="M176.383 123.095H169.412V130.108H176.383V123.095Z" fill="#3A444E"/>
<path d="M124.971 166H118V173.013H124.971V166Z" fill="#3A444E"/>
<path d="M427.971 0H421V7.01285H427.971V0Z" fill="#3A444E"/>
<path d="M175.971 166H169V173.013H175.971V166Z" fill="#3DE8E7"/>
<path d="M377.971 209H371V216.013H377.971V209Z" fill="#596274"/>
</svg>
