<svg width="387" height="187" viewBox="0 0 387 187" fill="none" xmlns="http://www.w3.org/2000/svg">
<path d="M180.045 131.86H186.95V138.969H180.045V131.86Z" fill="#404040"/>
<path d="M133.804 179.469H140.709V186.578H133.804V179.469Z" fill="#3FE7E7"/>
<path d="M105.29 35H112.195V42.1089H105.29V35Z" fill="#3FE7E7"/>
<path d="M0.00010252 0.176208H6.90479V7.28512H0.00010252V0.176208Z" fill="#9696A5"/>
<path d="M226.286 179.469H233.191V186.578H226.286V179.469Z" fill="#404040"/>
<path d="M379.785 139.964H386.69V147.073H379.785V139.964Z" fill="#9696A5"/>
<path d="M53.6883 38.6684H46.7178V45.6813H53.6883V38.6684Z" fill="#3A444E"/>
<path d="M53.6883 85.634H46.7178V92.6468H53.6883V85.634Z" fill="#596274"/>
<path d="M7.00622 132.599H0.0356445V139.612H7.00622V132.599Z" fill="#3A444E"/>
<path d="M53.6883 132.599H46.7178V139.612H53.6883V132.599Z" fill="#3DE8E7"/>
<path d="M7.00622 179.565H0.0356445V186.578H7.00622V179.565Z" fill="#596274"/>
</svg>
