<svg width="142" height="23" viewBox="0 0 142 23" fill="none" xmlns="http://www.w3.org/2000/svg">
<path d="M35.0735 9.44488C35.1311 9.50249 35.2222 9.50249 35.2798 9.44488L38.2514 6.44913C38.309 6.39152 38.309 6.2986 38.2514 6.24099L32.1019 0.0432079C32.0443 -0.0144026 31.9533 -0.0144026 31.8957 0.0432079L28.9241 3.03896C28.8665 3.09657 28.8665 3.18949 28.9241 3.2471L35.0735 9.44488Z" fill="url(#paint0_linear)"/>
<path d="M50.9574 3.04125L47.9858 0.0473583C47.9282 -0.0102523 47.8372 -0.0102523 47.7795 0.0473583L28.926 19.0551C28.8684 19.1127 28.8684 19.2057 28.926 19.2633L31.8958 22.259C31.9534 22.3166 32.0444 22.3166 32.102 22.259L50.9574 3.24939C51.0132 3.19178 51.0132 3.09886 50.9574 3.04125Z" fill="url(#paint1_linear)"/>
<path d="M44.8119 12.8577C44.7543 12.8001 44.6632 12.8001 44.6056 12.8577L41.634 15.8534C41.5764 15.911 41.5764 16.0039 41.634 16.0616L47.7835 22.2612C47.8411 22.3188 47.9322 22.3188 47.9898 22.2612L50.9614 19.2654C51.019 19.2078 51.019 19.1149 50.9614 19.0573L44.8119 12.8577Z" fill="url(#paint2_linear)"/>
<path d="M79.8192 0.491019C79.7895 0.461284 79.7542 0.437125 79.7151 0.420399C79.6761 0.403674 79.6352 0.39624 79.5925 0.39624H65.8236C65.7808 0.39624 65.7399 0.403674 65.7009 0.420399C65.6619 0.437125 65.6266 0.461284 65.5968 0.491019C65.5671 0.520753 65.5429 0.556063 65.5281 0.59509C65.5113 0.634116 65.5039 0.676859 65.5039 0.719603V21.5839C65.5039 21.6267 65.5113 21.6676 65.5281 21.7066C65.5448 21.7456 65.5671 21.7809 65.5968 21.8106C65.6266 21.8404 65.6619 21.8645 65.7009 21.8813C65.7399 21.898 65.7808 21.9054 65.8236 21.9054H79.5925C79.6352 21.9054 79.6761 21.8961 79.7151 21.8813C79.7542 21.8645 79.7895 21.8404 79.8192 21.8106C79.8489 21.7809 79.8731 21.7456 79.888 21.7066C79.9028 21.6676 79.9121 21.6248 79.9121 21.5839V17.9284C79.9121 17.8857 79.9047 17.8448 79.888 17.8039C79.8712 17.763 79.8489 17.7296 79.8192 17.6999C79.7895 17.6701 79.7542 17.646 79.7151 17.6292C79.6761 17.6125 79.6352 17.6051 79.5925 17.6051H70.306V13.3029H79.5925C79.6352 13.3029 79.6761 13.2954 79.7151 13.2787C79.7542 13.262 79.7895 13.2378 79.8192 13.2081C79.8489 13.1784 79.8731 13.143 79.888 13.104C79.9028 13.065 79.9121 13.0222 79.9121 12.9795V9.32402C79.9121 9.28128 79.9047 9.24039 79.888 9.19951C79.8712 9.15862 79.8489 9.12517 79.8192 9.09544C79.7895 9.0657 79.7542 9.04154 79.7151 9.02482C79.6761 9.00809 79.6352 9.00066 79.5925 9.00066H70.306V4.69845H79.5925C79.6352 4.69845 79.6761 4.69102 79.7151 4.67429C79.7542 4.65756 79.7895 4.63341 79.8192 4.60367C79.8489 4.57394 79.8731 4.53863 79.888 4.4996C79.9047 4.46057 79.9121 4.41783 79.9121 4.37509V0.719603C79.9121 0.676859 79.9047 0.635975 79.888 0.59509C79.8712 0.554205 79.8489 0.520753 79.8192 0.491019Z" fill="url(#paint3_linear)"/>
<path d="M14.0904 0.39624H0.319646C0.276902 0.39624 0.236017 0.403674 0.196991 0.420399C0.157964 0.437125 0.122655 0.459426 0.0929203 0.491019C0.0650442 0.518895 0.0408849 0.554205 0.0241593 0.59509C0.00743362 0.635975 0 0.675001 0 0.717744V4.37509C0 4.46057 0.0334513 4.54234 0.0929203 4.60367C0.152389 4.665 0.234159 4.69845 0.319646 4.69845H9.60796V13.5203C9.60796 13.563 9.61539 13.6039 9.63212 13.643C9.64884 13.682 9.67114 13.7173 9.70088 13.747C9.73061 13.7768 9.76592 13.8009 9.80495 13.8176C9.84397 13.8344 9.88486 13.8418 9.9276 13.8418H14.0904C14.1759 13.8418 14.2577 13.8084 14.3172 13.747C14.3766 13.6857 14.4101 13.6039 14.4101 13.5184V0.717744C14.4101 0.632258 14.3766 0.550488 14.3153 0.489161C14.254 0.427833 14.1759 0.39624 14.0904 0.39624Z" fill="url(#paint4_linear)"/>
<path d="M4.65902 9H0.144956C0.0650442 9 0 9.06504 0 9.14681V21.7598C0 21.8416 0.0650442 21.9066 0.144956 21.9066H4.65716C4.73708 21.9066 4.80212 21.8416 4.80212 21.7598V9.14681C4.80398 9.06504 4.73893 9 4.65902 9Z" fill="url(#paint5_linear)"/>
<path d="M23.873 0.394775H19.3608C19.2809 0.394775 19.2158 0.45982 19.2158 0.541589V21.759C19.2158 21.8408 19.2809 21.9058 19.3608 21.9058H23.873C23.9529 21.9058 24.0179 21.8408 24.0179 21.759V0.541589C24.0179 0.461678 23.9529 0.394775 23.873 0.394775Z" fill="url(#paint6_linear)"/>
<path d="M60.5527 0.394775H56.0405C55.9606 0.394775 55.8955 0.45982 55.8955 0.541589V21.759C55.8955 21.8408 55.9606 21.9058 56.0405 21.9058H60.5527C60.6326 21.9058 60.6976 21.8408 60.6976 21.759V0.541589C60.6976 0.461678 60.6326 0.394775 60.5527 0.394775Z" fill="url(#paint7_linear)"/>
<path d="M108.93 6.59717H97.0179C96.9751 6.59717 96.9343 6.6046 96.8952 6.62133C96.8562 6.63805 96.8209 6.66035 96.7912 6.69195C96.7614 6.72168 96.7373 6.75699 96.7224 6.79602C96.7075 6.83504 96.6982 6.87779 96.6982 6.91867V9.27513C96.6982 9.36062 96.7317 9.44239 96.7912 9.50371C96.8506 9.56504 96.9324 9.59849 97.0179 9.59849H105.747V12.7485H97.0179C96.9751 12.7485 96.9343 12.7559 96.8952 12.7727C96.8562 12.7894 96.8209 12.8117 96.7912 12.8433C96.7614 12.873 96.7373 12.9083 96.7224 12.9473C96.7075 12.9864 96.6982 13.0291 96.6982 13.07V13.9676V15.4265V19.225V20.3048V21.5796C96.6982 21.6651 96.7317 21.7469 96.7912 21.8082C96.8506 21.8695 96.9324 21.903 97.0179 21.903H107.154L107.155 21.8993H108.928C109.014 21.8993 109.096 21.8658 109.155 21.8045C109.215 21.7432 109.248 21.6614 109.248 21.5759V6.92053C109.248 6.83504 109.215 6.75327 109.153 6.69195C109.092 6.63062 109.016 6.59717 108.93 6.59717ZM105.749 18.9054H100.201V15.7517H105.749V18.9054Z" fill="url(#paint8_linear)"/>
<path d="M93.061 0.39209H89.8608C89.7809 0.39209 89.7158 0.457134 89.7158 0.538904V21.7563C89.7158 21.8381 89.7809 21.9031 89.8608 21.9031H93.061C93.1409 21.9031 93.2059 21.8381 93.2059 21.7563V0.538904C93.2059 0.457134 93.1409 0.39209 93.061 0.39209Z" fill="url(#paint9_linear)"/>
<path d="M141.019 9.59932C141.105 9.59932 141.186 9.56587 141.246 9.50454C141.305 9.44321 141.339 9.36144 141.339 9.27596V6.92136C141.339 6.87861 141.331 6.83773 141.315 6.7987C141.298 6.75968 141.275 6.72437 141.246 6.69463C141.216 6.6649 141.181 6.64074 141.142 6.62401C141.103 6.60729 141.062 6.59985 141.019 6.59985H129.107C129.021 6.59985 128.941 6.63331 128.88 6.69463C128.82 6.75596 128.785 6.83773 128.785 6.92322V15.431C128.785 15.5165 128.819 15.5983 128.878 15.6596C128.938 15.7209 129.019 15.7544 129.105 15.7544H130.279H131.967H137.834V18.9044H129.105C129.019 18.9044 128.938 18.9378 128.878 18.9991C128.819 19.0605 128.785 19.1422 128.785 19.2277V21.5842C128.785 21.6269 128.793 21.6678 128.809 21.7068C128.826 21.7459 128.848 21.7812 128.878 21.8109C128.908 21.8406 128.943 21.8648 128.982 21.8815C129.021 21.8982 129.062 21.9057 129.105 21.9057H141.017C141.103 21.9057 141.183 21.8722 141.244 21.8109C141.303 21.7496 141.339 21.6678 141.339 21.5823V15.4291V13.0745C141.339 13.0318 141.331 12.9909 141.315 12.9519C141.298 12.9129 141.275 12.8775 141.246 12.8478C141.216 12.8181 141.181 12.7939 141.142 12.7772C141.103 12.7605 141.062 12.753 141.019 12.753H138.157H132.29V9.59932H141.019Z" fill="url(#paint10_linear)"/>
<path d="M125.2 6.76882C125.17 6.73909 125.135 6.71493 125.096 6.6982C125.057 6.68148 125.016 6.67404 124.973 6.67404H116.244V0.718965C116.244 0.676222 116.237 0.635337 116.22 0.59631C116.204 0.557284 116.181 0.521974 116.151 0.49224C116.122 0.462505 116.086 0.438346 116.047 0.42162C116.008 0.404895 115.967 0.397461 115.925 0.397461H113.063C112.977 0.397461 112.896 0.430912 112.836 0.49224C112.777 0.553567 112.743 0.635337 112.743 0.720823V21.5833C112.743 21.6688 112.777 21.7505 112.838 21.8119C112.897 21.8732 112.979 21.9066 113.065 21.9066H124.977C125.02 21.9066 125.061 21.8992 125.1 21.8825C125.139 21.8658 125.174 21.8435 125.204 21.8119C125.234 21.7821 125.258 21.7468 125.273 21.7078C125.289 21.6688 125.297 21.626 125.297 21.5851V20.3121V19.2287V9.35201V8.79263V6.99555C125.297 6.9528 125.289 6.91192 125.273 6.87289C125.256 6.83387 125.23 6.79856 125.2 6.76882ZM121.792 18.9016H116.244V9.67537H121.792V18.9016Z" fill="url(#paint11_linear)"/>
<defs>
<linearGradient id="paint0_linear" x1="-1.57109" y1="-0.420445" x2="138.429" y2="20.1459" gradientUnits="userSpaceOnUse">
<stop stop-color="#12D6D6"/>
<stop offset="1" stop-color="#00DBA6"/>
</linearGradient>
<linearGradient id="paint1_linear" x1="-2.35822" y1="4.93872" x2="137.642" y2="25.5051" gradientUnits="userSpaceOnUse">
<stop stop-color="#12D6D6"/>
<stop offset="1" stop-color="#00DBA6"/>
</linearGradient>
<linearGradient id="paint2_linear" x1="-3.14478" y1="10.2949" x2="136.855" y2="30.8613" gradientUnits="userSpaceOnUse">
<stop stop-color="#12D6D6"/>
<stop offset="1" stop-color="#00DBA6"/>
</linearGradient>
<linearGradient id="paint3_linear" x1="-1.66525" y1="0.226142" x2="138.335" y2="20.7925" gradientUnits="userSpaceOnUse">
<stop stop-color="#12D6D6"/>
<stop offset="1" stop-color="#00DBA6"/>
</linearGradient>
<linearGradient id="paint4_linear" x1="-2.36824" y1="5.00696" x2="137.632" y2="25.5733" gradientUnits="userSpaceOnUse">
<stop stop-color="#12D6D6"/>
<stop offset="1" stop-color="#00DBA6"/>
</linearGradient>
<linearGradient id="paint5_linear" x1="-3.76965" y1="14.546" x2="136.23" y2="35.1123" gradientUnits="userSpaceOnUse">
<stop stop-color="#12D6D6"/>
<stop offset="1" stop-color="#00DBA6"/>
</linearGradient>
<linearGradient id="paint6_linear" x1="-2.74515" y1="7.5724" x2="137.255" y2="28.1388" gradientUnits="userSpaceOnUse">
<stop stop-color="#12D6D6"/>
<stop offset="1" stop-color="#00DBA6"/>
</linearGradient>
<linearGradient id="paint7_linear" x1="-1.96997" y1="2.29799" x2="138.03" y2="22.8643" gradientUnits="userSpaceOnUse">
<stop stop-color="#12D6D6"/>
<stop offset="1" stop-color="#00DBA6"/>
</linearGradient>
<linearGradient id="paint8_linear" x1="1.05236" y1="-0.72047" x2="141.052" y2="19.8459" gradientUnits="userSpaceOnUse">
<stop stop-color="#12D6D6"/>
<stop offset="1" stop-color="#00DBA6"/>
</linearGradient>
<linearGradient id="paint9_linear" x1="1.25517" y1="-2.10379" x2="141.255" y2="18.4626" gradientUnits="userSpaceOnUse">
<stop stop-color="#12D6D6"/>
<stop offset="1" stop-color="#00DBA6"/>
</linearGradient>
<linearGradient id="paint10_linear" x1="1.73013" y1="-5.33557" x2="141.73" y2="15.2308" gradientUnits="userSpaceOnUse">
<stop stop-color="#12D6D6"/>
<stop offset="1" stop-color="#00DBA6"/>
</linearGradient>
<linearGradient id="paint11_linear" x1="1.74122" y1="-5.41424" x2="141.741" y2="15.1522" gradientUnits="userSpaceOnUse">
<stop stop-color="#12D6D6"/>
<stop offset="1" stop-color="#00DBA6"/>
</linearGradient>
</defs>
</svg>
