<svg width="40" height="40" viewBox="0 0 40 40" fill="none" xmlns="http://www.w3.org/2000/svg">
<path d="M14.2266 29.9403V33.5616H14.7489C15.8144 33.5616 16.3506 32.8861 16.3506 31.73C16.3506 30.581 15.8144 29.9403 14.7489 29.9403H14.2266Z" fill="#9696A5"/>
<path d="M18.2186 32.3498C18.2186 33.1228 18.6156 33.6451 19.1936 33.6451C19.7786 33.6451 20.1686 33.1228 20.1686 32.3498C20.1686 31.5699 19.7786 31.0406 19.1936 31.0406C18.6156 31.0406 18.2186 31.5699 18.2186 32.3498Z" fill="#9696A5"/>
<path fill-rule="evenodd" clip-rule="evenodd" d="M39.6078 20.1723C39.6078 30.925 30.891 39.6417 20.1384 39.6417C9.3857 39.6417 0.668945 30.925 0.668945 20.1723C0.668945 9.41964 9.3857 0.702881 20.1384 0.702881C30.891 0.702881 39.6078 9.41964 39.6078 20.1723ZM13.9047 8.07315V11.2806C13.9047 11.4368 14.0301 11.5634 14.1847 11.5634H22.3165V19.3043C22.3165 19.4604 22.4418 19.587 22.5965 19.587H26.2479C26.4025 19.587 26.5279 19.4604 26.5279 19.3043V8.07315C26.5279 7.91701 26.4025 7.79043 26.2479 7.79043H14.1847C14.0301 7.79043 13.9047 7.91701 13.9047 8.07315ZM13.9047 16.0968C13.9047 15.6783 14.244 15.3391 14.6624 15.3391H17.3557C17.7742 15.3391 18.1134 15.6783 18.1134 16.0968V25.9044C18.1134 26.3229 17.7742 26.6621 17.3557 26.6621H14.6624C14.244 26.6621 13.9047 26.3229 13.9047 25.9044V16.0968ZM14.8185 34.0351H13.6486V29.4667H14.7907C16.1974 29.4667 16.9495 30.2815 16.9495 31.73C16.9495 33.1855 16.1974 34.0351 14.8185 34.0351ZM20.7605 32.3498C20.7605 33.471 20.0223 34.1187 19.1936 34.1187C18.3649 34.1187 17.6267 33.471 17.6267 32.3498C17.6267 31.2147 18.3649 30.567 19.1936 30.567C20.0223 30.567 20.7605 31.2147 20.7605 32.3498ZM22.989 34.1187C23.3929 34.1187 23.7759 33.9585 24.0823 33.6869L23.8316 33.3039C23.6227 33.4919 23.3511 33.6451 23.0377 33.6451C22.4179 33.6451 21.9931 33.1228 21.9931 32.3498C21.9931 31.5699 22.4388 31.0406 23.0516 31.0406C23.3232 31.0406 23.5322 31.1659 23.7272 31.34L24.0196 30.964C23.7829 30.7481 23.4764 30.567 23.0307 30.567C22.1602 30.567 21.4012 31.2147 21.4012 32.3498C21.4012 33.471 22.0906 34.1187 22.989 34.1187ZM26.9519 33.1089C26.9519 33.6591 26.5132 34.1187 25.7123 34.1187C25.2318 34.1187 24.7721 33.9167 24.4518 33.6521L24.7373 33.2691C25.0298 33.5059 25.3293 33.673 25.7332 33.673C26.1789 33.673 26.4017 33.4362 26.4017 33.1437C26.4017 32.7955 25.9978 32.6423 25.6287 32.503C25.1482 32.3289 24.6189 32.0991 24.6189 31.5281C24.6189 30.9849 25.0507 30.567 25.7819 30.567C26.2067 30.567 26.5758 30.7411 26.8335 30.9501L26.5619 31.3122C26.3321 31.1381 26.0884 31.0127 25.7889 31.0127C25.3641 31.0127 25.1691 31.2425 25.1691 31.5002C25.1691 31.8007 25.4938 31.9235 25.8502 32.0582L25.9212 32.0852C26.4087 32.2663 26.9519 32.4682 26.9519 33.1089Z" fill="#9696A5"/>
</svg>
