<svg width="37" height="37" viewBox="0 0 37 37" fill="none" xmlns="http://www.w3.org/2000/svg">
<path d="M33.8231 0.5H2.71447C1.28903 0.5 0.130859 1.67437 0.130859 3.11601V34.1679C0.130859 35.6095 1.28903 36.7839 2.71447 36.7839H33.8231C35.2485 36.7839 36.4148 35.6095 36.4148 34.1679V3.11601C36.4148 1.67437 35.2485 0.5 33.8231 0.5ZM11.097 31.6005H5.71923V14.2846H11.1051V31.6005H11.097ZM8.40813 11.9197C6.68302 11.9197 5.28998 10.5186 5.28998 8.80156C5.28998 7.08456 6.68302 5.68342 8.40813 5.68342C10.1251 5.68342 11.5263 7.08456 11.5263 8.80156C11.5263 10.5267 10.1332 11.9197 8.40813 11.9197ZM31.2557 31.6005H25.8779V23.1774C25.8779 21.1689 25.8374 18.5853 23.0837 18.5853C20.2814 18.5853 19.8521 20.772 19.8521 23.0317V31.6005H14.4743V14.2846H19.6335V16.6496H19.7064C20.4272 15.2889 22.1847 13.8554 24.8007 13.8554C30.2433 13.8554 31.2557 17.4433 31.2557 22.1084V31.6005Z" fill="#9696A5"/>
</svg>
