<svg width="102" height="28" viewBox="0 0 102 28" fill="none" xmlns="http://www.w3.org/2000/svg">
<path d="M37.2036 4.29364C36.923 4.01145 36.923 3.55562 37.2036 3.27343L40.2463 0.213353C40.5292 -0.0711179 40.9895 -0.0711174 41.2724 0.213353L48.3788 7.36033C48.6594 7.64252 48.6594 8.09835 48.3788 8.38054L45.3361 11.4406C45.0532 11.7251 44.5929 11.7251 44.31 11.4406L37.2036 4.29364Z" fill="#596274"/>
<path d="M37.2036 23.7063C36.923 23.9885 36.923 24.4444 37.2036 24.7265L40.2457 27.786C40.5286 28.0705 40.9889 28.0705 41.2717 27.786L64.6276 4.29695C64.9082 4.01476 64.9082 3.55893 64.6276 3.27674L61.5855 0.217277C61.3026 -0.0671938 60.8423 -0.067192 60.5594 0.217279L37.2036 23.7063Z" fill="#596274"/>
<path d="M53.4569 19.6195C53.1763 19.9017 53.1763 20.3575 53.4569 20.6397L60.5634 27.7866C60.8462 28.0711 61.3065 28.0711 61.5894 27.7867L64.6321 24.7266C64.9127 24.4444 64.9127 23.9886 64.6321 23.7064L57.5257 16.5594C57.2428 16.2749 56.7825 16.2749 56.4996 16.5594L53.4569 19.6195Z" fill="#596274"/>
<path d="M89.5406 11.2558V5.7674H101.417C101.643 5.7672 101.826 5.58281 101.826 5.35544V0.690594C101.826 0.46336 101.643 0.279201 101.417 0.279H83.8074C83.5813 0.279 83.398 0.463218 83.3978 0.690594V27.3094C83.398 27.5368 83.5813 27.721 83.8074 27.721H101.417C101.643 27.7208 101.826 27.5366 101.826 27.3094V22.6445C101.826 22.4172 101.643 22.2328 101.417 22.2326H89.5406V16.7442H101.417C101.643 16.744 101.826 16.5596 101.826 16.3322V11.6677C101.826 11.4404 101.643 11.256 101.417 11.2558H89.5406Z" fill="#596274"/>
<path d="M0 0.69023V5.35508C0 5.58245 0.183173 5.76683 0.409259 5.76703H12.2864V17.0221C12.2864 17.2496 12.4698 17.434 12.6961 17.434H18.0204C18.2466 17.434 18.43 17.2496 18.43 17.0221V0.69023C18.43 0.462713 18.2466 0.278274 18.0204 0.278274H0.409259C0.183173 0.278474 0 0.462855 0 0.69023Z" fill="#596274"/>
<path d="M0.723458 11.2554C0.323903 11.2554 0 11.5793 0 11.9789V26.9979C0 27.3974 0.323904 27.7213 0.723459 27.7213H5.41976C5.81931 27.7213 6.14322 27.3974 6.14322 26.9979V11.9789C6.14322 11.5793 5.81931 11.2554 5.41976 11.2554H0.723458Z" fill="#596274"/>
<path d="M24.5736 1.00173C24.5736 0.602176 24.8975 0.278274 25.297 0.278274H29.9933C30.3929 0.278274 30.7168 0.602177 30.7168 1.00173V26.9979C30.7168 27.3974 30.3929 27.7213 29.9933 27.7213H25.297C24.8975 27.7213 24.5736 27.3974 24.5736 26.9979V1.00173Z" fill="#596274"/>
<path d="M71.8344 0.278274C71.4349 0.278274 71.111 0.602176 71.111 1.00173V26.9979C71.111 27.3974 71.4349 27.7213 71.8344 27.7213H76.5307C76.9303 27.7213 77.2542 27.3974 77.2542 26.9979V1.00173C77.2542 0.602177 76.9303 0.278274 76.5307 0.278274H71.8344Z" fill="#596274"/>
</svg>
