<svg width="44" height="44" viewBox="0 0 30 30" fill="none" xmlns="http://www.w3.org/2000/svg">
<path d="M12.844 4H12.841C11.448 4 10.318 5.13 10.318 6.523C10.318 7.916 11.448 9.046 12.841 9.046H15.362V6.518C15.361 5.127 14.234 4 12.844 4Z" fill="#B2B5BB"/>
<path d="M6.54 21.696C5.147 21.696 4.017 20.566 4.017 19.173C4.017 17.78 5.147 16.65 6.54 16.65H9.063V19.173C9.063 20.566 7.933 21.696 6.54 21.696Z" fill="#B2B5BB"/>
<path d="M25.477 16.65H19.159C17.766 16.65 16.636 17.78 16.636 19.173C16.636 20.566 17.766 21.696 19.159 21.696H25.477C26.87 21.696 28 20.566 28 19.173C28 17.78 26.87 16.65 25.477 16.65Z" fill="#B2B5BB"/>
<path d="M10.32 19.173C10.32 17.781 11.449 16.652 12.841 16.652C14.232 16.652 15.361 17.781 15.362 19.173V25.479C15.362 26.871 14.233 28 12.841 28C11.449 28 10.32 26.871 10.32 25.479V19.173Z" fill="#B2B5BB"/>
<path d="M19.159 22.956C20.551 22.956 21.68 24.085 21.68 25.477C21.68 26.869 20.551 27.998 19.159 27.998C17.767 27.998 16.639 26.87 16.638 25.479V22.956H19.159Z" fill="#B2B5BB"/>
<path d="M12.841 15.371H6.523C5.13 15.371 4 14.241 4 12.848C4 11.455 5.13 10.325 6.523 10.325H12.841C14.234 10.325 15.364 11.455 15.364 12.848C15.364 14.241 14.234 15.371 12.841 15.371Z" fill="#B2B5BB"/>
<path d="M25.455 10.324C24.064 10.324 22.937 11.451 22.937 12.842V15.37H25.458C26.851 15.37 27.981 14.24 27.981 12.847C27.981 11.454 26.851 10.324 25.458 10.324H25.455Z" fill="#B2B5BB"/>
<path d="M16.639 12.848V6.523C16.639 5.131 17.768 4.002 19.16 4.002C20.552 4.002 21.681 5.131 21.681 6.523V12.848C21.681 14.24 20.552 15.369 19.16 15.369C17.768 15.369 16.639 14.24 16.639 12.848Z" fill="#B2B5BB"/>
</svg>
