<svg width="42" height="34" viewBox="0 0 42 34" fill="none" xmlns="http://www.w3.org/2000/svg">
<path d="M36.9176 8.90349C38.5078 7.71085 39.939 6.27969 41.1316 4.53048C39.5414 5.24606 37.9513 5.72312 36.3611 5.88214C38.1103 4.76901 39.3824 3.25833 40.0185 1.2706C38.3488 2.22471 36.5996 2.94029 34.6914 3.25833C33.8963 2.46324 32.9422 1.82716 31.9086 1.35011C30.8749 0.87305 29.7618 0.634521 28.5692 0.634521C27.0585 0.634521 25.7068 1.03207 24.4347 1.74765C23.1625 2.54275 22.1289 3.57637 21.4133 4.84852C20.6182 6.12067 20.3002 7.55183 20.3002 8.983C20.3002 9.61908 20.3002 10.2552 20.4592 10.8912C17.0403 10.7322 13.8599 9.93711 10.8386 8.34693C7.81722 6.83625 5.35243 4.76901 3.28519 2.1452C2.49009 3.49686 2.09255 4.92803 2.09255 6.35919C2.09255 7.79036 2.41059 9.14202 3.12617 10.3347C3.76224 11.6068 4.71636 12.5609 5.82949 13.356C4.47783 13.356 3.20568 12.9585 2.09255 12.2429V12.4019C2.09255 14.3896 2.72862 16.1388 4.00077 17.6495C5.27292 19.2397 6.86311 20.1938 8.77133 20.5914C7.97624 20.7504 7.26065 20.8299 6.54507 20.8299C6.06802 20.8299 5.51145 20.8299 5.03439 20.7504C5.51145 22.4201 6.46556 23.7717 7.89673 24.8849C9.3279 25.998 10.9181 26.4751 12.8263 26.4751C9.72544 28.8603 6.22703 30.053 2.41059 30.053C1.61549 30.053 0.979417 30.053 0.422852 29.9735C4.2393 32.5178 8.5328 33.7104 13.2239 33.7104C18.0739 33.7104 22.3674 32.5178 26.1839 29.9735C29.6028 27.7472 32.3061 24.8054 34.2143 20.9889C36.043 17.4905 36.9972 13.7536 36.9972 9.93711C36.9972 9.46006 36.9176 9.14202 36.9176 8.90349Z" fill="#9696A5"/>
</svg>
