<svg width="48" height="34" viewBox="0 0 48 34" fill="none" xmlns="http://www.w3.org/2000/svg">
<path d="M46.4718 5.76449C46.8174 7.32011 47.1631 9.73996 47.336 12.8512L47.4224 17.1724L47.336 21.4935C47.1631 24.7776 46.8174 27.111 46.4718 28.6666C46.1261 29.7037 45.6075 30.5679 44.9161 31.2593C44.1383 32.0371 43.2741 32.5557 42.237 32.8149C40.6814 33.2471 37.2245 33.5063 31.6934 33.6792L23.8289 33.7656L15.9644 33.6792C10.4333 33.5063 6.88994 33.2471 5.42074 32.8149C4.38366 32.5557 3.43301 32.0371 2.74162 31.2593C1.96381 30.5679 1.44528 29.7037 1.18601 28.6666C0.753891 27.111 0.494621 24.7776 0.321775 21.4935L0.235352 17.1724C0.235352 15.9624 0.235352 14.4932 0.321775 12.8512C0.494621 9.73996 0.753891 7.32011 1.18601 5.76449C1.44528 4.72741 1.96381 3.86318 2.74162 3.08537C3.43301 2.39399 4.38366 1.87545 5.42074 1.52976C6.88994 1.18406 10.4333 0.838371 15.9644 0.665525L23.8289 0.579102L31.6934 0.665525C37.2245 0.838371 40.6814 1.18406 42.237 1.52976C43.2741 1.87545 44.1383 2.39399 44.9161 3.08537C45.6075 3.86318 46.1261 4.72741 46.4718 5.76449ZM18.9892 24.2591L31.3477 17.1724L18.9892 10.1721V24.2591Z" fill="#9696A5"/>
</svg>
