<svg width="148" height="242" viewBox="0 0 148 242" fill="none" xmlns="http://www.w3.org/2000/svg">
<rect x="141" y="235" width="7" height="7" fill="#596274"/>
<rect x="47" y="235" width="7" height="7" fill="#404040"/>
<rect x="94" y="235" width="7" height="7" fill="#404040"/>
<rect x="141" y="188" width="7" height="7" fill="#404040"/>
<rect x="47" y="188" width="7" height="7" fill="#596274"/>
<rect y="188" width="7" height="7" fill="#404040"/>
<rect x="141" y="141" width="7" height="7" fill="#404040"/>
<rect x="47" y="141" width="7" height="7" fill="#404040"/>
<rect x="47" y="94" width="7" height="7" fill="#404040"/>
<rect x="94" y="141" width="7" height="7" fill="#596274"/>
<rect x="94" y="94" width="7" height="7" fill="#404040"/>
<rect y="141" width="7" height="7" fill="#3DE8E7"/>
<rect x="141" y="94" width="7" height="7" fill="#404040"/>
<rect x="141" y="47" width="7" height="7" fill="#404040"/>
<rect x="47" y="47" width="7" height="7" fill="#3DE8E7"/>
<rect x="94" y="47" width="7" height="7" fill="#404040"/>
<rect x="94" width="7" height="7" fill="#404040"/>
</svg>
